<svg id="Layer_1" data-name="Layer 1" xmlns="http://www.w3.org/2000/svg" viewBox="0 0 226.352 346.337"><defs><style>.cls-1,.cls-3,.cls-4{fill:none;}.cls-2{fill:none;}.cls-3{stroke:none;}.cls-3,.cls-4{stroke-linecap:round;stroke-linejoin:round;stroke-width:0;}.cls-4{stroke:#000;}</style></defs><title>sketch_portrait</title><path class="cls-1" d="M153.1,330.693c-.8,0-1.352,0-1.89,0v0Z" transform="translate(-123.752 -61.853)"/><path class="cls-1" d="M302.026,210.073l2,.69h0Z" transform="translate(-123.752 -61.853)"/><path class="cls-1" d="M302.642,211.355a3.279,3.279,0,0,0,.5-.151A3.279,3.279,0,0,1,302.642,211.355Z" transform="translate(-123.752 -61.853)"/><path class="cls-1" d="M322.2,306.845q.188.879.376,1.759-.189-.879-.376-1.759Z" transform="translate(-123.752 -61.853)"/><path class="cls-1" d="M162.794,237.923c-1.06.757-2.048,1.641-3.08,2.446h0C160.747,239.563,161.734,238.68,162.794,237.923Z" transform="translate(-123.752 -61.853)"/><path class="cls-1" d="M257.788,248.888a2.385,2.385,0,0,1-.091.278c.369.043.739.087,1.108.128-.369-.041-.739-.085-1.108-.128A2.385,2.385,0,0,0,257.788,248.888Z" transform="translate(-123.752 -61.853)"/><path class="cls-1" d="M204.349,267.761c-2.447,1.9-4.379,2.938-5.364,2.976.985-.038,2.918-1.074,5.366-2.976Z" transform="translate(-123.752 -61.853)"/><path class="cls-1" d="M282,246.462h0l-.537-.376h0Z" transform="translate(-123.752 -61.853)"/><path class="cls-1" d="M158.231,260.465h0c-.129.293-.257.587-.444,1.013C157.973,261.051,158.1,260.757,158.231,260.465Z" transform="translate(-123.752 -61.853)"/><path class="cls-1" d="M278.626,244.4a12.137,12.137,0,0,1,2.849,1.676l-.008.008h0l.009-.009A12.193,12.193,0,0,0,278.626,244.4Z" transform="translate(-123.752 -61.853)"/><path class="cls-1" d="M151.188,330.646q.358-1.26.717-2.525-.359,1.263-.719,2.522Z" transform="translate(-123.752 -61.853)"/><path class="cls-1" d="M304.019,210.806c-.178.088-.353.173-.529.253.176-.08.351-.165.529-.253Z" transform="translate(-123.752 -61.853)"/><path class="cls-1" d="M322.6,308.675q.276,1.408.551,2.818-.274-1.41-.551-2.818Z" transform="translate(-123.752 -61.853)"/><path class="cls-1" d="M315.154,230.786h0c-.345-.39-.877-.862-1.207-1.246C314.277,229.924,314.809,230.4,315.154,230.786Z" transform="translate(-123.752 -61.853)"/><path class="cls-1" d="M296.188,379.868l1.11.159-1.105-.16c-.254-.709-1.627-.954-1.362-1.878C294.566,378.913,295.938,379.159,296.188,379.868Z" transform="translate(-123.752 -61.853)"/><path class="cls-1" d="M317.138,340.5c-.789-.49-1.414-.879-2.033-1.272l0,.007Z" transform="translate(-123.752 -61.853)"/><path class="cls-1" d="M300.8,231.73l1.1,2.307-1.1-2.306Z" transform="translate(-123.752 -61.853)"/><path class="cls-1" d="M151.036,326.239l-.875-.111.875.111Z" transform="translate(-123.752 -61.853)"/><polygon class="cls-1" points="35.86 178.598 35.86 178.598 35.86 178.598 35.86 178.598"/><path class="cls-1" d="M150.5,329.333c.2.45.451.878.681,1.316v-.006C150.954,330.209,150.706,329.782,150.5,329.333Z" transform="translate(-123.752 -61.853)"/><path class="cls-1" d="M151.2,330.693a10.532,10.532,0,0,1,.262,1.29,11.194,11.194,0,0,0-.258-1.29Z" transform="translate(-123.752 -61.853)"/><polygon points="157.715 184.234 157.715 184.234 157.715 184.234 157.715 184.234 157.715 184.234"/><path d="M175.064,93.646c-2.913.489-5.641.874-7.529,3.178l2.5.315,1.843-.589.281.468-2.107,1.714h2.715l.072.292-2.87,1.737h7.967l.008.242-.852.385c.179.411.337.773.366.837l1.44.514a4.389,4.389,0,0,1-1.122.563c-1.143.2-2.572-.058-3.393.542-1.31.957-2.523.518-3.8.5a4.214,4.214,0,0,0-1.239,0,26.5,26.5,0,0,0-10.295,5.581,25.129,25.129,0,0,1-3.6,2.389c-.055.834.04,1.241-.119,1.473a11.077,11.077,0,0,1-1.717,2.139c-1.622,1.422-3.344,2.728-5,4.114-.207.174-.247.547-.364.829a2.547,2.547,0,0,0,.916.131,7.587,7.587,0,0,0,1.244-.513c-1.4,1.611-2.865,3.151-4.165,4.818-1.752,2.248-3.411,4.57-5.047,6.905-.883,1.26-1.636,2.611-2.438,3.906l.521.06a9.462,9.462,0,0,1-.641,1.243c-1.244,1.748-2.531,3.464-3.758,5.224-.139.2.007.6.027,1.029l1.23-.792c-2.751,3.09-5.69,5.908-9.617,7.525l4.146-.486c-.623.873-1.235,1.729-1.846,2.586l.176.192,3.585-2.935.344.324a40.713,40.713,0,0,0-1.695,4.3c-.383,1.385-.243,2.921-1.318,4.088a.568.568,0,0,0-.093.345c-.06,2.01.218,4.1-.241,6.013-.88,3.673-2.24,7.229-3.278,10.868-.549,1.928-.849,3.928-1.242,5.9a24.735,24.735,0,0,0-.408,2.531,2.567,2.567,0,0,0,.192,1.305c.8,1.633.387,3.3.111,4.919-.294,1.719-1.223,3.395-1.208,5.083a8.352,8.352,0,0,0,2.318,5.625c1.045,1.079.732,2.04.676,3.154-.05.991-.01,1.986-.01,2.978l.46,0c.116-.317.231-.634.522-1.429a28.912,28.912,0,0,0,.674,4.751,20.884,20.884,0,0,1,.944,9.327,1.681,1.681,0,0,0,.008.714c.647,1.925,1.457,3.807,1.942,5.769.5,2.038.58,4.179,1.055,6.225.8,3.43,1.762,6.821,2.609,10.044l1.365-1.067a8.638,8.638,0,0,1,.454,2.01c-.014,1.171-.292,2.338-.315,3.509a11.809,11.809,0,0,0,.391,2.061c.624,3.738,1.316,7.466,1.828,11.22.437,3.209.641,6.449.985,9.671q.483,4.514,1.057,9.016a21.71,21.71,0,0,0,.665,3.179c.8,2.786,1.821,5.517,2.435,8.339.712,3.273,1.09,6.619,1.6,9.935a59.088,59.088,0,0,0,1.269,7.909c.707,2.373.374,4.7.493,7.036.056,1.1,1.219,3.266,1.991,3.407-.035-.477-.079-.985-.092-1.5,0-.026.364-.129.406-.076a12.6,12.6,0,0,1,.691,1.064l1.909-4.729c-.342-.709-.63-1.308-1.022-2.12l-.617-.082.227-.917,2.732,2.151a20.055,20.055,0,0,1,.037-3.134,18.4,18.4,0,0,1,1.1-3,17.423,17.423,0,0,1-2.19,1.022c-.27.078-.642-.127-.938-.267-.046-.022-.016-.2.006-.367.008-.055.014-.108.017-.154.272.018.544.033.816.055.141.011.281.034.478.059-.067-1.747-1.409-1.694-2.674-1.945l.482-1.725a1.725,1.725,0,0,1-.85-1.14,3.786,3.786,0,0,1-.195-.931c-.046-.831-.19-1.676.739-2.234a3.4,3.4,0,0,0,.886-1.06c.048-.072-.165-.443-.205-.434a6.82,6.82,0,0,0-.81.25c.06-1.655.576-3.382-.838-4.021l-3.31-5.409c.2.019.342.043.484.043s.281-.021.151-.01v-1.529c-1.33-.17-1.958-1.8-1.223-3.751l1.023.251c-.373-.564-1.064-.81-1.33-1.291-.588-1.065.089-1.112,1.091-.915a2.956,2.956,0,0,0-.842-1.157c-.552-.444-1.642-.414-1.029-1.7a5.29,5.29,0,0,0,.166-2.367c-.058-1.354-.277-2.7-.3-4.057-.049-2.831-.015-5.663-.015-8.545a4.507,4.507,0,0,0,1.393.211c1.314-.32,1.312.441,1.213,1.35a2.486,2.486,0,0,0,0,.83c1.229,5.177,2.351,10.385,3.748,15.517,1.127,4.139,3.524,7.254,8.049,8.162,4.159.835,8.281,1.976,12.479,2.471a137.53,137.53,0,0,0,33.24-.234,3.422,3.422,0,0,1,2.152.478c.622.413.142,4.1-.406,4.679-.585.62-1.1,1.307-1.644,1.966l.295.472,4.38-2.169.123.333q-.29.325-.577.653l.363.383a10.949,10.949,0,0,0,1.983-1.842c.183-.27-.216-1.3-.613-1.532-1.24-.726-.813-1.637-.532-2.584a3.147,3.147,0,0,0,.2-.513,13.266,13.266,0,0,1,.334-3.217,30.918,30.918,0,0,1,2.256-4.5c1.255-2.2,2.544-4.394,3.915-6.528,1.34-2.087,2.885-3.986,3.227-6.63a50.073,50.073,0,0,1,1.755-7.6c.352-1.2.88-2.763,1.818-3.291a11.133,11.133,0,0,1,4.773-.993,25.094,25.094,0,0,1,4.477.463c.361.047.92.15,1.016.381a22.328,22.328,0,0,1,1.324,3.829,18.776,18.776,0,0,1,.139,3.245c.012.337.089.675.069,1.009-.063,1.077-.211,2.151-.219,3.227a13.511,13.511,0,0,0,.263,2.248,3.306,3.306,0,0,0,.36,1.313c.735,1.077,1.56,2.091,2.405,3.2l.829-.318c.8,1.186.959,3.016,3.024,2.848.1-.008.264.4.354.635a5.639,5.639,0,0,0,.441,1.245c.648.911,1.392,1.753,2.072,2.642.314.412.551.881.853,1.3,1.286,1.8,2.878,3.461,2.635,6l-.968-.137c-.659,1.033-1.214,1.9-1.768,2.768l.227.162.722-.566c.54,1.036,1.059,2.014,2.465,1.335.113-.054.38.091.51.213,1.142,1.077,2.257,2.184,3.407,3.254.691.643,1.43,1.235,2.147,1.851-1.121-2.627-2.49-4.955-3.686-7.369-.8-1.62.109-2.8,1.908-2.706,4.753.261,9.5.653,14.26.76a115.441,115.441,0,0,0,33.018-3.525c3.257-.883,5.974-2.387,7.121-5.717a37.5,37.5,0,0,0,1.647-6.691c.627-4.236,1-8.509,1.556-12.756a2.056,2.056,0,0,1,.984-1.465c1.049-.374,2.225-.38,3.315-.665a6.408,6.408,0,0,0,1.5-.888c.778,1.9,1.131-1.179,1.908-.508.157-.327.455-.656.449-.98-.037-2.1-.2-4.2-.184-6.3a3.544,3.544,0,0,1,.738-1.869,29.963,29.963,0,0,1,2.084-2.383l.867.632c.378-.525.7-.973,1.315-1.831.069,2.683.563,4.766-.89,6.745-.516.7-.341,1.949-.382,2.951-.027.636.256,1.3.175,1.918-.152,1.149-.47,2.276-.773,3.662l2.117-1.286c.146,3.041.775,6.112.274,8.986-.381,2.18,1.086,4.513-.634,6.491a.289.289,0,0,0,0,.237,5.8,5.8,0,0,1,.485,3.369c-.371,2,.227,4.174.4,6.275.033.395.005.8.005,1.182l1.482.295A35.69,35.69,0,0,1,323.9,290.9c-.811,1.033-2.867,1.331-1.86,3.368a.311.311,0,0,1-.039.234,3.706,3.706,0,0,0,1.229,5.275l.158.031a1.464,1.464,0,0,0,1.177-.86,4.854,4.854,0,0,0,.131-1.6c-.007-2.194.759-4.392,1.218-6.584.139-.661.4-1.3.511-1.963.44-2.592.844-5.189,1.266-7.784a.729.729,0,0,1,.117-.209,12.119,12.119,0,0,0,1.139-2.04,31.15,31.15,0,0,0,.684-3.074A37.373,37.373,0,0,0,331,269.38a46.627,46.627,0,0,0-.69-6.954,8.178,8.178,0,0,0-.053-1.2c-.843-3.186,3.732-4.1,3.011-7.228-.006-.023.042-.058.057-.076l.9.188L333.2,251.8l.554-.306c.32.442.641.883,1.22,1.681.368-2.779.7-5.258,1.03-7.777l1.023.536c-.5-2.547,1.378-.076,1.807-1.33l-1.821-1.264,2.082.152c-1.42-1.756-3.068-3.171-1.872-5.506.07-.135-.191-.411-.222-.632-.169-1.2-.314-2.412-.468-3.619l.316-.038,1.138,2.661,1.1-4.454.212.06q.094.712.19,1.423l.659-.023c0-1.074-.067-2.154.015-3.222.142-1.857-.229-3.835,1.377-5.37a2.9,2.9,0,0,0,.543-1.752c.084-1.077.024-2.166.024-3.549l.874.719c.384-5.329,3.2-10.157,2.317-15.9l1.344,1.642c-.262-1.969-.516-3.885-.794-5.983l.974.555a12.592,12.592,0,0,1,.025-1.97c.076-.45.577-.877.544-1.287a33.619,33.619,0,0,0-.617-3.418l.916,1.018-.461-3.12-.565.625c-.727-1.867,1.039-1.887,1.525-2.517-.382-2.452-.748-4.805-1.115-7.158l.442-.1c.233.655.467,1.309.773,2.166.3-.906.519-1.588.743-2.275l1.068.472c-.259-.82-.414-1.34-.588-1.854-.478-1.418-.942-2.84-1.462-4.243-.107-.289-.43-.5-.86-.971.714-1.125.273-2.629-.544-4.154-.175-.328.123-.909.264-1.727a34.192,34.192,0,0,1-3.069-3.378,37.768,37.768,0,0,1-2.345-4.28l.093.008q-.949-2.1-1.9-4.2l.368-.159q.243.583.488,1.168c.179-3.586.357-7.128-1.348-10.439l.849-.129c-.176-1.413-.347-2.777-.517-4.14a6.6,6.6,0,0,1-2.046-2.163c-.466-.672-.912-1.358-1.359-2.043-.246-.378-.477-.767-.716-1.151l-.4.222-2.189-2.64.359-.39.993.3-.682.466,4.362,1.839.233-.429-6.893-4.251.264-.452,1.4-.362c-.439-.241-.673-.369-.906-.5a14.414,14.414,0,0,1-1.345-.792c-.037-.026.233-.676.33-.668a5.571,5.571,0,0,1,1.457.338c.248.093.446.5.651.487.328-.02.933-.311.918-.416-.192-1.336.56-1.593,1.968-1.516a26.892,26.892,0,0,0-2.356-1.594,27.937,27.937,0,0,1-3.711-1.857c-.417-.309-.3-1.479-.212-2.231.023-.2.842-.49,1.262-.442,1.04.12,2.059.412,3.087.635l.034-.183-2.3-.905.081-.237,3.365.617.152-.663c-1.42-.395-2.847-.764-4.253-1.2-.294-.092-.505-.445-.822-.741l-2.108-.621-.41.176c-.194-2.67,1.158-3.713,3.678-3.118,1.632.385,3.319.539,5.224.835-.467-.546-.78-.91-1.117-1.3l1.135-.454-5.587-2.463,4.079-1.963c-1.951.242-3.895.52-5.848.707a19.145,19.145,0,0,1-2.473-.07c.132-.646.271-1.29.391-1.938.017-.093-.055-.2-.134-.462l-1.96,2.175c-.181-.613-.318-1.073-.454-1.533l-.61-.117,1.9-2.671c-1.841.407-1.841.407-2.215,1.951-.405,1.67-.5,1.73-1.341,1.1.153-1.176.29-2.234.428-3.292l-.3-.041q-.306.61-.61,1.221l-.3-.119v-.768l-1.032.217c-.029-.452-.053-.818-.061-.93l-2.809,1.709a1.159,1.159,0,0,1,.014-.95c.131-.492.218-1,.323-1.495a9.449,9.449,0,0,1-1.2-.022,5.9,5.9,0,0,1-2.491-.484c-1.159-.835-1.86-2.406-3.713-1.9-.1.028-.3-.271-.444-.429-.438-.488-.871-.983-1.332-1.5a5.474,5.474,0,0,1,.18,1.741c-.04.166-.844.307-1.217.193a10.8,10.8,0,0,1-1.937-.946,24.436,24.436,0,0,0-2.428-1.362c-1.631-.661-3.316-1.189-4.966-1.8-.2-.073-.288-.39-.474-.535-.635-.492-1.326-.917-1.921-1.451-.277-.248-.6-.739-.529-1.029.364-1.481-.618-2.365-1.434-3.226-1.214-1.281-2.593-2.405-4.135-3.808l1.7-.9c-.667-.83-1.3-1.661-1.982-2.455-.635-.743-1.383-1.4-1.936-2.2a1.315,1.315,0,0,1,.276-1.212,7.068,7.068,0,0,1,1.613-.9c-1.207.228-2.334.443-3.462.652-1.083.2-3.182-1.41-3.446-2.514a2.131,2.131,0,0,0-.844-1.284c-1.49-.812-2.563-2.439-4.513-2.371-.045,0-.095-.12-.308-.407l2.941-.915-2.872-.919c.893-2.967.893-2.967,1.8-3.046l-5.139-2.918,2.906-1.308a10.513,10.513,0,0,0-1.277-.49c-.7-.157-1.424-.232-2.127-.387-1.84-.4-3.676-.828-5.51-1.257-.372-.088-.73-.237-1.094-.357l.406-.954c-.688-1.517-1.754-.9-3.1-.085.169-.967.276-1.574.439-2.508a30.346,30.346,0,0,0-4.666,1.907c-1.15.7-2.065,1.579-3.526.634l2.864-1.517c-2.744.748-5.058,1.391-7.38,2-.584.154-1.511,0-1.734.347-.708,1.09-1.2.658-1.754-.027-1.393,1.035-4.68,1.44-5.124.818.993-.846,1.967-1.688,2.96-2.507.131-.109.482-.184.523-.126a3.1,3.1,0,0,1,.309.7c.561-.728,1.157-1.5,1.83-2.379a25.639,25.639,0,0,0-5.1.907c-1.875.718-3.506,2.045-5.321,2.953-2.026,1.014-4.14,1.85-6.213,2.772-.605.269-1.192.581-1.8.849-1.081.48-2.171.941-3.257,1.41l-.349-.465,4.254-3.375-.174-.206-1.171.476c-.891-2.48,1.194-2.534,2.47-3.183l-2.763.533c.064-.95.121-1.786.176-2.593l-6.129,3.58-1.068-.571c-.151.721-.278,1.325-.405,1.93l-.31-.343-3.458,1.632-.385-.272,2.61-2.864a4.485,4.485,0,0,0-1.223-.037c-1.278.367-2.739.542-3.719,1.313-.483.381-.718,1.165-1.507.934A22.534,22.534,0,0,1,211.249,66l-8.574,1.134a5.61,5.61,0,0,1-1.149.815,8.172,8.172,0,0,1-1.681.4c.957,5.207.7,10.089-2.129,14.775L197,82.031a2.82,2.82,0,0,0-.577.511,20.342,20.342,0,0,0-1.366,2.42c-.4.909-1.324,1.738-.48,2.946.152.218-.463.972-.567,1.174l-2.092-1.334.473,1.758-2.585-1.772-5.558,3.037.392.63-3.774-1.211.87,1.322-8.731,1.216Zm38.888,172.813a8.763,8.763,0,0,0-6.649,6.348c-.377,2-.838,3.989-1.249,5.984a1.375,1.375,0,0,0,.139,1.02c.339-1.367.619-2.753,1.045-4.091a6.088,6.088,0,0,1,1.014-1.467c.269.484.513.984.812,1.449a20.188,20.188,0,0,1,1.437,2.164,9.677,9.677,0,0,1,.569,2.231,4.5,4.5,0,0,1,.114,1.4,6.182,6.182,0,0,1-.322,1.2,7.535,7.535,0,0,0-2.128,1.193c-.211.249.206,1.028.431,1.941-1.045,2.6-3.561,4.02-6.95,4.179-3.51.164-6.991.867-10.5,1.119a82.852,82.852,0,0,1-22.077-1.116c-4.874-.964-9.634-2.512-14.424-3.876a2.394,2.394,0,0,1-1.385-1.248,63.433,63.433,0,0,1-2.405-7.084c-.152-.585.678-1.438,1.087-2.15.229-.4.521-.763,1.014-1.473l-1.474-1.026-.993,1.6-.547-.023c-.91-4.362-1.528-8.752-1-12.645.951-.45,1.422-.672,1.891-.9.029-.014.043-.1.058-.1,1.426.148,1.963-1.343,3.121-1.691.979-.293,1.929-.641,2.626.565a.509.509,0,0,0,.176.172,8.457,8.457,0,0,0,.843.332h0c-.129.292-.258.586-.445,1.013-.062.143-.131.3-.209.477l1.652-1,2.989,3.545-.139,1.435.828-.128c.042.795.085,1.587.127,2.389l1.318-.35-.384-.5,2.437,1.926-1.577.389.544.843.133-.553,2.406.318c-.088-.208-.337-.789-.564-1.378a2.041,2.041,0,0,1,.369-.174c.166.268.3.553.526.988l1.186-2.308c.938.519,1.99,1.158,3.1,1.68a1.352,1.352,0,0,0,1.212-.047c1.006-1.153,1.989-1.513,3.4-.593.432.282,1.246-.055,1.884-.044a6.675,6.675,0,0,1,1.161.227l1.324-1.028c.151,1.341.46,2,1.593,1.088a1.018,1.018,0,0,1,.582-.133c1.2-.025,2.414.065,3.6-.077a12.407,12.407,0,0,0,3.467-1.018l-3.664-.681.114-.431,1.145.642c-.275-.514-.392-.734-.522-.976,2.288-.188,4.565-.416,6.848-.531a4.515,4.515,0,0,1,1.548.534c-.43.438-.805,1.163-1.3,1.258a4.358,4.358,0,0,0-3.132,1.777c-.151.227-.584.264-.858.5,2.443-.107,4.979,1,7.207-1.206l.108.588-2.3,2.081.331.378,2.9-2.109.3.457-1.146.7a.622.622,0,0,0,.653.3c.985-.038,2.917-1.074,5.364-2.976l-1-.051-.315-.4.935-.43c.061-.732.095-1.126.129-1.533l-1.73-.813c2.26-.783,4.15-1.306,5.921-2.1a2.75,2.75,0,0,0,1.613-3.489,5.723,5.723,0,0,1,.379-2.164,18.152,18.152,0,0,1,3.223.757,2.51,2.51,0,0,1,1.373,1.515,30.149,30.149,0,0,1,.456,5.662A2.309,2.309,0,0,1,213.952,266.459Zm-63.3-10.858c4.849-1.591,9.852-1.177,14.84-1.013Zm27.447-1.082c.24-.018.491.05.726.009,1.678-.288,2.366.135,2.331,2.1-.049,2.776,1.525,4.918,3.647,6.669.366.3.443.954.653,1.444a4.4,4.4,0,0,1-1.487.317,8.286,8.286,0,0,1-3.336-.817c-2.1-1.419-4.77-2.248-5.843-4.872-.163-.4.132-.987.215-1.487l.5.073C175.261,256.848,176.95,254.6,178.1,254.519Zm22.283,11.944c.048.658-.6.5-4.128-1.145,2.151-.44,3.905-1.243,5.584.8l-2.265-.268-.093.244ZM195,264c-.4.131-.923-.092-1.818-.205,2.7-2.136,4.256-4.483,4.3-7.642a.891.891,0,0,1,.552-.634c1.906-.447,5.694,1.405,6.353,3.115a1.124,1.124,0,0,1-.151,1C201.6,262.013,198.264,262.946,195,264Zm-11.157-10.772.019-.285,27.066,1.955-.035.592Zm12.721-6.039-.684.76c-.424-.217-.807-.438-1.209-.614a5.657,5.657,0,0,0-4.62.262,1.324,1.324,0,0,1-1.049-.17c-1.513.615-5.664-.553-6.167-1.929,4.434-1.769,10.934-1.554,15.377,2.235Zm111.544,20.828a92.214,92.214,0,0,1-1.481,9.952,20.457,20.457,0,0,1-1.675,5.538A5.613,5.613,0,0,1,302,285.77a62.541,62.541,0,0,1-9.062,2.774,93.918,93.918,0,0,1-12.689,1.832c-5.886.375-11.8.383-17.7.349a50.786,50.786,0,0,1-8.685-.8,6.706,6.706,0,0,1-5.218-3.734c-.492-1.053-1.331-1.95-1.786-3.014a8.2,8.2,0,0,1-.271-2.375,20.013,20.013,0,0,1-.179-2.206c0-.287.314-.569.484-.852a7.387,7.387,0,0,1,.366,1,4.135,4.135,0,0,1,.013.87l.562-.032c-.307-1.763-.614-3.526-.966-5.551l1.6.43a9.458,9.458,0,0,0-3.151-5.887,8.835,8.835,0,0,1-2.978-5.9c-.035-.443-.549-.847-.822-1.241a3.462,3.462,0,0,0,.508-1.046,3.9,3.9,0,0,1,2.674-3.194,10.585,10.585,0,0,1,3.382-.544c1.072-.062,1.027.546.665,1.358a9.89,9.89,0,0,0-.927,2.788c-.138,1.179,1.693,2.741,2.915,3,1.806.385,3.695.314,5.439,1.092a4.6,4.6,0,0,0,1.884.01c.234-.009.477-.147.7-.113.936.14,1.864.323,2.8.49l.162-.772-1.256-.166.151-.166c-.8-.432-1.589-.871-2.392-1.293-1.593-.837-3.214-.255-4.843-.141a4.223,4.223,0,0,1-2.64-.47c-.528-.4-.56-1.511-.689-2.326-.022-.14.549-.431.881-.562a40.084,40.084,0,0,0,7.44-3.99c1.32-.877,3.311-.742,5.155-1.093a5.734,5.734,0,0,1-.182,1.1c-1.509,3.679,1.682,8.264,4.82,9.606a9.876,9.876,0,0,0,3.534,1.021c.839.014,1.727-.728,2.533-1.229,2.768-1.723,4.565-4.123,4.655-7.473a23.767,23.767,0,0,0-.548-3.957c.985,0,2.315-.4,3,.088a12.041,12.041,0,0,1,3.083,3.553c1.57,2.605,1.291,3.3-1.148,5.216-.743.584-1.16,1.584-1.9,2.168-1.126.885-2.422,1.553-3.611,2.364-.224.152-.286.541-.459.894h-2.719c.719,1.905,1.894.8,2.869.761a10.56,10.56,0,0,1,1.3.017,33.132,33.132,0,0,0,3.639.29c1.594-.053,3.179-.406,4.773-.452.98-.028,2.013.526,2.942.362a10.239,10.239,0,0,0,2.734-1.451c-.04-.042.14.148.122.128a8.134,8.134,0,0,1,1.329-1.359c.563-.359,1.26-.507,1.571-.993l1.078-2.019-.57-.293,2.158-2.028c-.784-1.169-1.6-2.351-2.348-3.577-.051-.085.422-.49.612-.7a2.287,2.287,0,0,1-.563-.512c-.048-.079.181-.437.355-.522a8.622,8.622,0,0,0,2.448-1.517c-1.215-.079-2.431-.155-3.647-.239a28.884,28.884,0,0,1-3.622-.41c5.28-.274,10.576-.853,15.737.712l-.017.6-4.9-.3-.066.476.855.928c-.024-.468-.036-.709-.067-1.306.827,1.691,3.526.785,3.349,3.377-.068,1.011.961,2.054,1.087,3.129A38.066,38.066,0,0,1,308.107,268.021ZM282,246.463h0l0,0-.042.014q.9,1.21,1.807,2.42l-.121.48c-2.554-.523-5.109-1.042-7.656-1.6a5.017,5.017,0,0,1-.006-.946c-.892.275-1.746.523-2.577.835a5.192,5.192,0,0,0,.167.937l-8.133.423.028.114c-.934.121-1.877.2-2.8.385a3.833,3.833,0,0,0-1.072.59c-.477.285-.948.579-1.422.869l-.286-.429.939-1.039-2.028-.227c-.369-.041-.739-.085-1.108-.128a2.385,2.385,0,0,0,.091-.278c.083-.293.154-.608.341-.707a54.192,54.192,0,0,1,6.289-3.169,22.871,22.871,0,0,1,14.208-.609,12.193,12.193,0,0,1,2.85,1.675l-.009.009Zm-4.651,5.635L258.8,253.749l-.125-.7,18.658-1.191Zm-35.268-85.693c.015.8-.083,1.6-.1,2.4,0,.17.14.342.216.513l.848-.456c.4,1.136.809,2.3,1.218,3.465l.377-.155c-.613-2.738-1.225-5.476-1.852-8.278a2.12,2.12,0,0,1,2.664,1.532,7.165,7.165,0,0,0,1.513,2.088c.937.957,1.053,3.912.122,4.948a1.607,1.607,0,0,0-.248.66c-.269,1.038-.4,2.412-1.7.6-.093-.128-.582.032-1.079.074l-6.053-9.975C240.936,162.571,242.025,163.291,242.085,166.405Zm-16.994-8.885c.606,1.9,1.085,3.4,1.565,4.9C223.411,160.749,223.411,160.749,225.091,157.52ZM186.11,176.135l-.716,1.887.206.174a3.9,3.9,0,0,1,.807-.882c.43-.249,1.1-.618,1.406-.451,1.073.59,1.228.263,1.25-.792.008-.374.576-.77.957-1.065.06-.047.492.386.75.6.187-.66.424-1.493.662-2.326l.289.109-.621-2.48.482-.173c.687,1.056,1.366,2.117,2.072,3.16.1.148.447.325.488.286,1.348-1.272,2.2.185,3.243.57a1.177,1.177,0,0,1,.158.072l.859-.413.229.235.925-1.261c-.182-.852-.316-1.483-.45-2.114l1.626-.292.119.4-1.313,1.256c2.642-1.345,1.995,1.222,3.036,1.5.514-.879,1.067-1.823,1.556-2.66l1.346-.628c-.28-.51-.467-.849-.639-1.2a1.248,1.248,0,0,1,.286-.154c.289.342.714.667.8,1.064.215.959.2,1.969.41,2.931a15.6,15.6,0,0,0,.84,2.482c.073.182.4.262.606.389a2.8,2.8,0,0,0,.222-1c-.148-.889-.469-1.753-.564-2.643-.033-.319.386-.686.6-1.031.29.229.762.413.835.7a7.415,7.415,0,0,1,.122,1.906,8.11,8.11,0,0,1-.207.841c-.007.053.331.231.364.2a2.57,2.57,0,0,0,.5-.628c.2-.377.358-.778.558-1.221l1.274.607.516-.167c-.168-.61-.334-1.22-.507-1.828-.021-.073-.138-.167-.12-.2,1.094-1.782-1.1-3.11-.656-4.784a8.012,8.012,0,0,1,.688-1.337l.562,3.37.408-.084c.261-.774.5-1.558.811-2.311.046-.11.655-.127.666-.09a38.985,38.985,0,0,1,1.12,4.323,20.513,20.513,0,0,1-.226,2.335c.016.4.438.778.66,1.176.509.917,1.009,1.84,1.8,3.289-.313-1.523-.5-2.592-.755-3.646-.473-1.978-.851-3.947.173-5.871.065-.122.349-.111.5-.206.593-.364,1.171-.752,1.763-1.119.245-.152.589-.449.751-.376a5.082,5.082,0,0,1,1.681,1.045,3.218,3.218,0,0,1,.62,1.706l1.239,2.964.5-.087c-.307-1.351-.615-2.7-.9-3.945l1.588.356a16.66,16.66,0,0,1-.849-2.319,24.655,24.655,0,0,1-.3-2.942c-.015-.219.176-.449.178-.674a10.552,10.552,0,0,0-.11-1.172,5.251,5.251,0,0,1,1.314.644,7.791,7.791,0,0,1,2.181,2.326c.71,1.7.046,2.405-1.884,2.513l2.751,1.393c.047-.179.157-.592.308-1.164l1.464,1.345c.056-.456.107-.878.159-1.3l.628.681c.983-.7,1.932-1.147,3.047.218a14.67,14.67,0,0,0,2.911,2.179l.3-.368c-.874-.764-1.7-1.6-2.634-2.278a13.267,13.267,0,0,1-5.159-6.324c-.256-.735.2-1.758.477-2.6.05-.156.774-.094,1.517-.164l-1.107,1.44c2.569.4,3.033,2.746,4.292,4.324a24.315,24.315,0,0,0,2.9,3.444c-.08-.282-.16-.565-.237-.839l1.1-.637a5.724,5.724,0,0,1-1.47-.988,6.108,6.108,0,0,1-.6-1.724c.277,0,.838-.141.951.023.679,1,1.209,2.1,1.881,3.1.557.832,1.249,1.572,1.867,2.364.892,1.144,1.821,2.263,1.237,3.912-.056.157.539.582.871.83.365.273,1.007.4,1.126.737.492,1.386,2.361,2.225,1.633,4.12-.1.263.233.743.451,1.064a13.988,13.988,0,0,0,1.035,1.24c.224.258.459.506.689.758l.482-.267c-.445-1.223-.907-2.442-1.322-3.676a1.387,1.387,0,0,1,.033-.832A17.7,17.7,0,0,1,247.646,174c.26-.46.972-.666,1.89-1.246-.235-1.087-.57-2.637-.919-4.254l1.934.219a22.333,22.333,0,0,0-.39,3.14,24.944,24.944,0,0,0,.436,3.263l-.55.118-.647-.944-.46.36c.534.608,1.118,1.179,1.588,1.832a8.6,8.6,0,0,1,1.219,2.11c.5,1.435.851,2.923,1.3,4.529l2.076-2.673-2.031.3c-.164-1.35-.328-2.707-.5-4.173l1.849.4.388-.449c-2.708-.248-2.13-1.742-1.829-3.378.215-1.169-.148-2.445.077-3.793.562,1.148,1.218,2.261,1.664,3.452.5,1.342.787,2.764,1.235,4.128.075.23.575.552.737.485,1.67-.687,1.45.876,1.584,1.511.368,1.734.471,3.525.932,5.308V178.62l.712-.18,3.018,9.118.315-.063q-.435-3.219-.868-6.439l.738-.344,2.3,2.611-.459.438-1.252-.972-.245.278,4.168,3.829.526-.454c-1.285-1.084-2.988-1.945-2.32-4.081h.8c-2.305-.759-2.363-2.825-2.58-4.916l2.192,1.654.3-.291-5.739-5.565.242-.366,1.7.85.662-.434c-.292-1.113-.618-2.226-.836-3.36-.024-.13.741-.608.831-.536,2.571,2.038,5.22,4,7.6,6.24,2.3,2.164,4.319,4.628,6.476,6.947a1.258,1.258,0,0,0,1.074.315c-.508-.846-.985-1.713-1.532-2.534-.91-1.366-1.811-2.744-2.828-4.029a7.709,7.709,0,0,0-1.637-1.105,10.018,10.018,0,0,1-2.114-1.67,34.688,34.688,0,0,1-2.568-3.931c-.18-.307-.027-.811-.027-1.046l-1.345-.428.089-.413,1.864-.308c-.939-1.189-3.093.189-3.42-1.949h2.388c-.1-.488-.347-1.12-.218-1.211a6.3,6.3,0,0,1,1.519-.6l-.18.566a15.4,15.4,0,0,1,1.494,1.222,4.189,4.189,0,0,1,.548,1.054,13.2,13.2,0,0,0,1.464,2.415c-.133-1.181-.265-2.362-.393-3.5.519.18,1.163.367,1.777.624,1.06.445,2.088.969,3.16,1.382a4.732,4.732,0,0,0,1.171.023c.712.066,3.5,3.028,3.577,3.759q.169,1.511.374,3.019c.012.088.166.157.322.294l.638-.808.339.041q-.408,4.488-.817,8.966c1.532-1.435.9-3.638,1.654-5.32.935.829,1.369,4.037.631,5.89,1.895-.649,1.433,1.006,1.814,1.823.029.064-.3.29-.363.327.37,1.993.775,3.915,1.069,5.853.185,1.216.064,2.49.343,3.676a13.661,13.661,0,0,0,1.446,2.786l.36-1.557,1.146-.083c-.352-.844-.691-1.654-.871-2.085-.568-.15-1.17-.179-1.208-.34-.288-1.231-.466-2.488-.753-4.169l1.012,1.127c-.139-2.982-.276-5.933-.423-9.079l-1.286.758v-2.981c.537,1.129.528,2.78,2.3,1.948l-1.264-1.962c2.491.394,2.254,2,2.549,3.3l-1.015-.117-.091.514a6.471,6.471,0,0,1,1.63.213c.442.174.766.63,1.17.924a5.313,5.313,0,0,0,.727.409c.294.49.544.913.8,1.331.057.094.224.213.2.249-.684,1.307.746,1.461,1.149,2.172a4.3,4.3,0,0,1,.231,1.168c.093.429.076,1,.345,1.249a18.24,18.24,0,0,0,2.058,1.5,10.5,10.5,0,0,1,.357,1.9c0,.631-.441,1.34-.268,1.88.342,1.069.441,2.58,2.587,1.954l-.3.62-2.071.21,2.57,2.407c-1.71.892-2.733-.224-3.989-.954.2,1.591.375,2.957.567,4.463l.742-.523.379.175a11.2,11.2,0,0,1-.877,1.694c-.067.093-.689-.213-.925-.292.426,1.16.8,2.273,1.25,3.356a7.628,7.628,0,0,0,.984,1.283l0-.014,0-.01c.022-.061.009-.026,0,0l0,.01.01-.029a9.26,9.26,0,0,1,2.456.663,2.1,2.1,0,0,0,1.572.3,3.279,3.279,0,0,0,.5-.151c.117-.044.233-.092.349-.145.176-.08.351-.165.529-.253l0-.043-2-.69-2.126-.735,1.392-2.333.278.149-.256.684,2.059.646-1.5.229,1.729.842.313-.573.3.032q-.094.875-.188,1.749l.048.017-.055.044.875-.132-.636,1.118,2.835-.467a14.237,14.237,0,0,0,.9,3.382,14.781,14.781,0,0,0,2.4,2.739l.47-.417-1.081-2.109a2.466,2.466,0,0,1,.55-.451,6.625,6.625,0,0,1,1.052-.4l-1.411-.448,1.156-1.379.636.153,1.132,5.251c-.16.2-.394.5-.629.795l.179.264,1.767-.951c.081.487.081.487-1.626,2.112.409,1.668.8,3.138,1.111,4.623a3,3,0,0,1-.187,1.069c-.311-.2-.612-.409-.935-.585-.378-.206-.774-.38-1.163-.568-.167.44-.59,1.023-.442,1.286.235.419.85.625,1.365.959-.023.361-.051.812-.079,1.263l.241.034V226.8c.876.621,1.757.835,1.18,2.163-.055.127.07.333.277.574.33.384.862.856,1.207,1.246l.015-.014.037.071a.428.428,0,0,1-.043-.014c-.353,2.408.581,3.851,2.816,4.019l-1.2.558c.558,1.036,1.034,1.866,1.456,2.722.334.675.6,1.383.885,2.045l-.741-.186-.1.291,1.568.594a4.74,4.74,0,0,1-3.082,5.135,16.341,16.341,0,0,0-2.279,1.48c-.194.13-.355.341-.566.41a31.6,31.6,0,0,1-3.956,1.211c-.924.176-1.757.1-.836,1.634-1.47-.106-2.713-.283-3.953-.267-1.951.026-3.9.289-5.85.258-2.823-.045-5.657-.152-8.457-.478a4.155,4.155,0,0,1-2.15-1.63,17.744,17.744,0,0,0-7.625-5.23,18.259,18.259,0,0,0-5.371-.741,36.1,36.1,0,0,0-6.162.092c-2.184.267-4.314.95-6.486,1.353a5.8,5.8,0,0,1-1.806-.248l-.108-.482c-.617.7-1.23,1.394-1.853,2.082a.838.838,0,0,1-.316.178c-.853.35-1.729.653-2.544,1.074-.175.091-.134.6-.156.721l-5.068,4.03-.7-.47-1.823,2.282c-.8-.646-1.614-1.279-2.369-1.974a6.9,6.9,0,0,1,.62-.9l-1.086-1.619,2.131-3.753-2.089.431,1.771-1.251-.1-.368-2.093.443a9.924,9.924,0,0,0,1.252-1.949,4.474,4.474,0,0,1,4.928-2.864l.25-.706,1.8.193c.835-.3,1.365-.479,1.884-.684.322-.127.714-.5.927-.411,1.7.709,1.793-.633,2.525-1.571.668-.856,2.077-1.177,3.2-1.621,1.171-.462,2.4-.788,3.819-1.245l-1.163,1.592,8.692-2.18.165.589-1.971.522h6.081l-1.025.384.214.544c.549-.256,1.1-.722,1.646-.718a10.056,10.056,0,0,1,2.647.52c.683.2,1.308.61,2,.773.259.061.62-.312.935-.487l-.23-.492.975-.085-.834-.69c2.288-.412,3.948.062,4.946,2.183.17.363.83.526,1.291.716,1.278.524,2.57,1.015,4.111,1.618l-.838.616.117.253,1.583-.59q.066-.26.13-.519c.961.712,1.912,1.437,2.886,2.13.753.537,1.536,1.032,2.306,1.547.13.087.254.245.389.254.462.032.928.012,1.393.012l.138-.528-3.3-1.564.089-.405,2.084.353c-1.321-1.1-3.574-.736-4.429-3.158l5.765,2.788c-.6-1.511-1.124-2.81-1.633-4.084l1.058-.48c-.128-.265-.257-.53-.384-.795l-1.1-2.307-.613-.375-3.516-2.414c-1.208-.831-2.434-1.638-3.605-2.517-.217-.163-.212-.62-.323-.985-2.724-.615-2.391-4.009-4.839-5.557l.544,1.371-2.689-1.548-.242.341,1.944,1.424-.106.2-3.527-1.138c-.44.918-.959,1.279-1.814.278-.131-.153-1.053.37-2.064.752-.671-.365-1.659-.388-3,.477-1.16.749-2.921.694-4.425.742-1.06.033-1.318.17-.822,1.174.135.273-.1.726-.17,1.154l-1.4-.912-.184,1.059-5.657-1.378,2.736,1.508-.088.425-4.413-.414c.06.343.168.966.261,1.5l-1.948.149v.417l-2.9-.664.547.639-3.873.662.594,1.305-2.833-.451-.071.267.992.628-5.328,1.179.618.858-1.221.336-.006.313,2.24.288-.039.287-3.195-.222.155-.351-1.7,1.146.79.5-1.444.146c.374,1.916.259,2.025-2.34,2.128l1.66.95-4.068,1.2,1.825.874-.56.107c-.2,1.1-.363,2.218-.617,3.31a6.829,6.829,0,0,1-.616,1.317l-.683-.414c-.537,1.2-1.1,2.442-1.656,3.688l.276.086-1.728,1.171.455.157a7.034,7.034,0,0,1-.026,1.785,16.847,16.847,0,0,1-1.267,3.583,3.641,3.641,0,0,1-1.872,1.672,29.336,29.336,0,0,1-4.461.681l1.6.536-.051.416h-3.574l-.035-.477,1.661-.442c-1.8-.225-3.339-.4-4.874-.63-.274-.042-.7-.3-.736-.512-.294-1.615-.471-3.252-.771-4.866a8.156,8.156,0,0,1-.429-1.582,4.97,4.97,0,0,0-.025-1.573c-.552-1.549-1.277-3.037-1.815-4.59a2.443,2.443,0,0,0-3.088-1.379,5.672,5.672,0,0,1-1.329.224l1.84-3.635a4.847,4.847,0,0,1-1.39-.36c-.331-.194-.776-.863-.689-.989a11.758,11.758,0,0,1,1.6-1.595l-2.829-.839q.1-.31.2-.623h-5.255c.418-1.122.731-1.959,1.094-2.932l-3.2.5,1.02-.841-2.792.279-.965-1.68-1.524.906-.2-.222.89-1.123-2.311-.58-1.753.812c.064-.826.11-1.416.125-1.614-2.142-.232-4.4.071-6.026-.8-1.806-.964-3.387-.777-5.544-.356l.873-1.265-9.8-3.172c-.62,1.007-3.193.031-2.354,2.318-.476.1-.891.168-1.295.278-.216.059-.408.241-.621.262-.081.007-.3-.392-.269-.422.186-.187.445-.3.641-.479.464-.425.906-.873,1.356-1.312l-.516-.585-4.71,3.535-.176-.221,1.99-2.1-.408-.475L161.2,231.034l.328.458,2.96-2.222.127.176-4.374,4.574.3.335.765-.256,1.044,2.782-3.627,2.292.894,1.278h0l0-.074c.034,0,.07,0,.1-.008,1.032-.805,2.02-1.689,3.08-2.446.366-.26.74-.506,1.127-.727a24.864,24.864,0,0,1,4.3-1.546q.141.368.28.735c-1.5.683-3.032,1.311-4.494,2.071-.872.454-1.587,1.216-2.466,1.648a5.429,5.429,0,0,1-1.828.265l-.089.071c.252,1.111.874,1.276,1.875.756,1.706-.887,3.012-2.4,5.2-2.595.979-.086,1.807-1.585,2.762-2.372a2.676,2.676,0,0,1,1.55-.8c1.742.146,3.468.494,5.028.739l-.617-.44a1.5,1.5,0,0,1,.39-.167,72.908,72.908,0,0,0,8.66-.316,19.318,19.318,0,0,1,4.887.057c.3.029.609-.527.969-.644.557-.182,1.287-.481,1.723-.272,1.964.943,3.816,2.119,5.783,3.057a12.626,12.626,0,0,0,2.589.483,1.99,1.99,0,0,1,.975.541c.513.559.943,1.195,1.456,1.863l-.922.516a9.151,9.151,0,0,0,1.51.963,5.073,5.073,0,0,0,1.409.144l-.792-1.146,6.186,1.119-.075.437-2.115.193.9,1.391-2.3-.978-.122.237c1.075.793,2.44,1.392,3.14,2.436.64.956.561,2.394.793,3.588.846.368,2.816.253.663,1.687-.349.232-.247,1.1-.412,1.661a5.485,5.485,0,0,1-.468.923l-.52-.2c.031.307.061.614.092.921l-.3,0V251.81l-4.424-2.784.092-.087-1.489-.66.126-.369.812.046c-.623-1.748-2.19-1.84-3.557-2.307a10.456,10.456,0,0,1-1.922-1.271l-5.775-.938v-.115a8.43,8.43,0,0,1-1.419.248c-1.147.007-2.295-.056-3.442-.095a26.853,26.853,0,0,0-13.739,3.3c-2.091,1.12-3.864,2.822-5.909,4.046a7.681,7.681,0,0,1-3.486,1.012,46.046,46.046,0,0,1-5.437-.34c-.131-.01-.257-.1-.147-.057l1.352-1.253c-.1-.131-.2-.261-.295-.391-1.352,1.642-3.2,1.735-5.067,1.724a26.01,26.01,0,0,1-2.971-.1c-.175-.022-.337-.659-.39-1.028-.041-.289.212-.654.111-.889-.065-.152-.548-.217-.819-.173-1.729.284-2.662-1.053-3.833-1.872a5.848,5.848,0,0,1-1.583-1.527,3.518,3.518,0,0,1-.51-1.858,23.248,23.248,0,0,1,.371-3.2,15.882,15.882,0,0,1,.448-1.96c.355-1.226.748-2.441,1.133-3.685,1.461-.576.624-2.346,1.3-3.648.277.642.452,1.047.6,1.388.249-1.271.587-2.56.728-3.87.1-.909-.134-1.848-.11-2.771.031-1.167.192-2.33.252-3.5a3.2,3.2,0,0,0-.21-.886c.08-1.067.161-2.144.241-3.221l-.422-.044.7-.592-.114-.121c.355-.288.847-.517,1.009-.89.079-.181-.458-.63-.726-.97h1l-.6-.732,2.267.375c-3.5-2.022-.414-3.527-.115-5.305l-1.194.695.669-1.511.924.361c-1.824-1.611,1.623-2.4.172-3.9.981.106,1.876.3,1.3-1.119-.147-.362.316-.964.479-1.461.091-.277.3-.708.188-.829-1.664-1.833.176-1.551,1.14-2.152l-1.786-.313,2.1-2.049,1.237,1.11.3-.224c.077.33.153.66.25,1.077l3.627-2.1c-2.161-.2-1.931-1.451-1.693-2.7.214-1.12.427-2.24.638-3.35l-.8.384.262-.992c1.395-.61,2.479-1.108,3.582-1.559.686-.28,1.5-.969,1.841.439.042.173.574.225.94.355l-1.077.967a5.9,5.9,0,0,1,1.581.779c.209.193.037.8.037.967l2.281,3.224c.061-.313.286-.729.171-1-.453-1.074-1.107-2.071-1.49-3.165-.165-.471.15-1.11.262-1.762l-.769-.206a6.315,6.315,0,0,1,.282-2.284c.223-.411,1.1-.467,2.052-.817-.023.056-.034.08-.048.112a.505.505,0,0,1,.028-.051,4.367,4.367,0,0,1,.628-.9c.067-.065.586.142.594.248.032.421.109,1.045-.127,1.246-1.433,1.223-.933,1.814.682,2.188.449-1.643,1.244-1.295,2.22-.206l-1.172.952a18.844,18.844,0,0,0,1.861.9c.162.059.668-.3.652-.346-.492-1.458,1.248-1.175,1.608-1.988a7.493,7.493,0,0,1,1.553.35,2.376,2.376,0,0,0,1.107.076l-3.691-1.9a30.967,30.967,0,0,0,2.382-2.033c.526-.551.859-1.28,1.335-1.885.525-.666,1.116-1.28,1.893-2.161C182.34,180.812,184.486,177.092,186.11,176.135Zm-4.557-.422c1.525,1.948-.133,7-2.7,7.99-.229-1.111-.864-2.341-.585-3.307.357-1.237,1.44-2.269,2.229-3.376C180.806,176.587,181.164,176.191,181.553,175.713Z" transform="translate(-123.752 -61.853)"/><path d="M314.206,341.549l.45.231c-2.93,2.83-2.93,2.83-2.2,4.1l.428-2.117c.907,2.3-1.031,3.541-1.91,5.224l-1.382-.108.367,1.378c-.493.142-1.028.132-1.188.372-.592.888-1.049,1.865-1.579,2.8-.3.528-.642,1.033-.965,1.548-.382.4-.453,1.336-.783,1.437-1.757.541-3.366,2.17-3.033,3.84.349,1.742-.525,2.6-1.67,3.437-.8.589-1.674,1.089-2.486,1.667-.828.589-1.577,1.364-2.727.931-.044.538-.094,1.075-.128,1.613-.023.367-.16.971-.008,1.059a9.6,9.6,0,0,0,1.926.622l-2.683.682c.023.258.056.627.09,1l-.406-.3a16.03,16.03,0,0,0-2.841,2.885c-.674,1.142-2.211,1.926-3.375,1.168l-1.342-.376c-.151.279-.391.555-.509.837a.836.836,0,0,0-.071.284,2.009,2.009,0,0,1-2.828,1.668,2.143,2.143,0,0,0-1.572-.153,16.056,16.056,0,0,0-2.319,1.6c-.541-.637-1.15-1.722-2.3-.265l-1.111-1.763-1.286,3.067c-2.364.091-1.824,2.939-3.455,3.952-.457-.115-1.323-1.725-1.54.448-.052.518-1.32.955-2.07,1.351-.547.289-1.282.313-1.718.7-.682.6-1.128,1.07-1.672-.1-.16-.343-.607-.553-.865-.775l-1.181,1.7-1.215-.78-.492.542.923.593c.265.938.482,1.7.746,2.638l-.99.885c-.078-.759-.13-1.262-.2-1.922-1.662.675-.649,1.721-.684,2.594a3.859,3.859,0,0,1-.77,1.892c-.141.2-.773.069-1.337.1-.112-.336-.253-.832-.451-1.3-.061-.146-.281-.225-.428-.334a2.265,2.265,0,0,0-.282.461c-.14.435-.247.88-.367,1.322l-.456-.576-3.314,1.566c.121-.463.25-.955.389-1.484l-1.381.412v2.177l-3.169-.723a15.564,15.564,0,0,0-.02-1.568c-.014-.126-.285-.313-.435-.31a.552.552,0,0,0-.391.35c-.151.633-.246,1.28-.41,2.189a7.848,7.848,0,0,0-1.247-.736,3.927,3.927,0,0,0-1.1-.02l1.826,2.373c-1.463-.315-2.714-.44-2.513-2.288a3.576,3.576,0,0,0-.906,1.292c-.178.363-.367.721-.551,1.082l-1.1-.827-.8.451,1.523,1.339c-2.43-.061-.584,1.354-1.36,2.472-.3-1.188-.5-1.985-.721-2.836-1.233-.311-.981.719-1.139,1.452-.051.24-.335.429-.512.642a3.066,3.066,0,0,1-.355-.65c-.178-.658-.311-1.327-.5-2.155l-1.459,1.008-.434-1.232-1.257.9-.755-1.194c-.2.378-.556.747-.578,1.136-.1,1.742-1.385,1.14-2.34,1.307-1.013.178-2.053-.582-3.1.386-.544.5-1.67.374-2.533.53l-.266-.628-1.838,2.237-.931-.54,1.321-1.591-1.365-1.024-.415,1.068c.6-2,.026-2.934-2.03-2.446.225-.738.413-1.357.636-2.091l-2.86,3.327c-3.536.069-3.128-1.888-2.513-3.74l-3.371,1.353v-3.467c-.4.313-.315.615-.392.867-.194.639-.462,1.255-.7,1.88a7.709,7.709,0,0,0-1.417-.571,8.255,8.255,0,0,0-1.566-.022c-1.23-.731.121-.783.659-1.119.08-1.31-3.017.785-1.509-2.094a7,7,0,0,0-2.126.6,6.706,6.706,0,0,0-1.182,1.766l-.4-1.811-1.428,1.068-1.386-1.957c.3-.791.6-1.57.9-2.348l-.441-.224-.747,1.293c-.6-1.113-1.323-2.419-2.006-3.746-.175-.339-.1-.916-.349-1.085-.815-.559-1.787-.894-2.582-1.475a40.085,40.085,0,0,1-4.709-3.733c-3.082-3.055-5.994-6.281-9.027-9.386a4.622,4.622,0,0,0-2.24-1.53c-2.027-.275-2.546-1.429-2.592-3.212-.034-1.3-1.57-2.643-2.261-2.562l-3.078-3.823-.193.268-1.351-1.008c-.274.028-.787.191-.868.069a13.012,13.012,0,0,1-1.263-2.313,9.023,9.023,0,0,1-.338-1.833c-.35.335-.69.683-1.057,1a2.483,2.483,0,0,1-.591.259,3.909,3.909,0,0,1,.379.431,8.007,8.007,0,0,1,.335.77,10.271,10.271,0,0,1-5.118-5l1.278-.457,2.92,2.826c1.719-2.578.276-4.813-.505-6.867l-1.883-1.1-.844.6-.225-.289q.611-1,1.222-2l-.5-.1c.043-.423.115-.846.122-1.27a4.055,4.055,0,0,0-.12-1.134c-.02-.073-.428-.04-.636-.054-.044.39-.08.708-.117,1.025l-.471,0a7.554,7.554,0,0,1,.063-.978c.176-.913.4-1.784-.663-2.394-1-.574-1.616-1.319-.5-2.508l-1.55.664-.858-.627-1.735.179c-.046-.459-.077-.919-.141-1.376-.042-.293-.04-.673-.219-.85-.468-.461-1.024-.832-2.044-1.629.348,1.446.592,2.464.844,3.514l.117.016.624,1.255c-3.295-1.362-1.784-4.474-2.53-6.781l-.816.08.918-1.255h-1.889a11.194,11.194,0,0,1,.258,1.29,18.549,18.549,0,0,0,.191,2.826c.4,1.606.952,3.178,1.51,4.739a23.061,23.061,0,0,0,1.315,3.056c1.06,2,2.23,3.942,3.288,5.942.444.839.654,1.8,1.094,2.642.405.777,1.039,1.432,1.461,2.2.831,1.514,1.5,3.125,2.395,4.6,1.109,1.813,2.327,3.569,3.606,5.268,2.409,3.2,4.9,6.346,7.35,9.515,1.583,2.046,4.064,3.447,4.5,6.331.037.243.6.43.948.594.487.23,1.3.292,1.441.638.588,1.5.955,3.094,1.469,4.63.088.263.5.419,1.11.9.72,2.079,2.854,4.519,3.99,4.331.063.382-.01.935.214,1.115a21.038,21.038,0,0,0,2.39,1.553c1.3.779,2.6,1.556,3.922,2.289.506.28,1.155.717,1.611.6,1.445-.383,2.705-.885,3.878.719.326.446,1.186.479.965,1.41-.031.13.409.371.956.841l-.582-1.246.426-.382c.246.372.681.732.707,1.119.126,1.906,2.044,1.59,2.984,2.057,1.551.77,3.651.341,5.4.844,1.283.37,2.326,1.507,3.557,2.145A17.4,17.4,0,0,0,217,404.574c1.082.293,2.457-.345,3.15,1.11a.958.958,0,0,0,.6.364c1.68.408,3.349.9,5.053,1.157,2.367.357,4.764.513,7.145.792,2.946.345,5.752.411,8.436-1.392,1.349-.907,3.166-1.152,4.8-1.594a51.857,51.857,0,0,1,5.085-1.144,41.027,41.027,0,0,1,4.936-.492c1.552-.065,3.439-1.061,4.325,1.29.062.162.662.259.939.167a1.21,1.21,0,0,0,.745-.711c.043-.217-.323-.6-.595-.771a6.691,6.691,0,0,0-1.268-.481c.074-.207.08-.406.181-.484,1.3-1.015,2.6-2.031,3.939-3a1.218,1.218,0,0,1,.933-.168c.916.274,1.284.194,1.06-.929-.052-.258.809-1,1.25-1,2.017,0,3.32-1.207,4.7-2.4a5.553,5.553,0,0,1,2.276-1.4,5.553,5.553,0,0,0,3.679-2.15c.847-.247,1.522-.815,2.3-1.109a13.392,13.392,0,0,1,3.034-.694c.332-.041.721.369,1.084.573l.113-.879,6.271-.636-.043-.35-.815-.153c-.3-1.206-.545-2.165-.915-3.635l2.8-.081,1.436-1.624-.932-.066c.132-.568.263-1.131.493-2.117.693-.163,1.843-.434,3-.7-.25-.709-1.622-.955-1.357-1.879a1.524,1.524,0,0,1,.222-.44l1.356.514c.043-.32.086-.64.175-1.3l-.688.856c-.29-1.292-.29-1.292,2.533-1.779l.355.959c.278-.115.787-.214.8-.348.068-.98.037-1.968.037-3.319l1.071-.714c-.092-1.737,1.372-1.745,2.484-2.235l-1.162-.675a7.346,7.346,0,0,0,1.4-1.232,18.879,18.879,0,0,0,1.381-2.609c.376-.813.584-1.713,1.02-2.488.853-1.517,1.839-2.959,2.72-4.461.4-.681.491-1.675,1.048-2.105a6.349,6.349,0,0,0,2.648-4.419,4.935,4.935,0,0,1,.433-1.012l-.222-.653c1.992-1.2,2.623-2.78,1.723-3.693l1.221-2.1-.514-.368,1.256-.582-.79-.934.558.138,1.244-2.5-2.036-1.265C314.805,340,314.509,340.765,314.206,341.549Z" transform="translate(-123.752 -61.853)"/><path d="M151.205,330.688l0-.019-.028.022h0l0,0h.037Z" transform="translate(-123.752 -61.853)"/><path d="M315.092,339.221l0,0,.012.008,0-.007v0Z" transform="translate(-123.752 -61.853)"/><path d="M295.452,366.266c.026.011.05.013.076.022l.006-.082Z" transform="translate(-123.752 -61.853)"/><path d="M192.9,342.354c-2.2,1.517-4.308,3.151-5.416,5.785a12.971,12.971,0,0,0,1.021,1.667c.213.273.7.329,1.069.484-.051-.3-.085-.6-.161-.892a5.668,5.668,0,0,0-.322-.725c2.458.368,4.3-.319,5.546-2.342a.962.962,0,0,1,.717-.365c1.877.036,3.944-.532,5.209,1.595.1.172.638.047.946.143,1.177.367,2.775-1.027,3.594.851.017.039.15.026.3.047.131-.248.27-.514.434-.826l1.406.9.126-.145c-.17-.209-.341-.417-.615-.752a14.964,14.964,0,0,0,2.821.378c.337-.017.751-.675.934-1.121.239-.583.08-1.587.452-1.811a8.377,8.377,0,0,1,3.621-1.46,83.808,83.808,0,0,1,8.947.221c2.083.13,4.162.749,6.226.679,2.383-.081,4.738-.788,7.125-1.025,3.247-.323,6.467-1.536,9.788-.393a2.56,2.56,0,0,0,1.813.145c1.553-.959,1.671.339,2.292,1.337l-3.1,1.462,1.588.457-1.618.817.812,2.094-1.409-.527.218,1c.664.041,1.3-.107,1.666.14,1.035.694,2.187.391,2.445-.387l2.216-.5c.225-.189.542-.107.79-.2,1.577-.607,3.152-1.224,4.7-1.9,1.155-.5,2.291-1.056,3.4-1.657a12.8,12.8,0,0,0,2.034-1.381c.272-.225.311-.894.556-.954a4.6,4.6,0,0,1,1.582.227c.772-1.228,2.017-1.332,3.475-.576.732-1.033,1.355-.9,2.847.137.5.351,1.444.132,2.173.06.15-.014.438-.646.344-.807-.746-1.276-1.363-2.723-3.168-2.865-.227-.017-.491-.288-.635-.509-.493-.761-.941-1.551-1.4-2.324-1.583.908-1.564.9-2.192-.333-.081-.161-.692-.246-.7-.22-.71,1.722-1.719.406-2.038-.041-.632-.885-1.287-.6-1.674-.157a10.43,10.43,0,0,0-.877,2.026c-.878,1.663-3.521,2.588-5.449,2.389-2.441-.252-4.964.135-7.224-1.195a.191.191,0,0,0-.12,0,6.964,6.964,0,0,1-4.731-.483,2.888,2.888,0,0,0-3.878,1.609,33.745,33.745,0,0,0-3.585.807c-1.7.585-3.341,1.32-5.007,1.991l.142.209-2.819-.185.834,1.044a26.822,26.822,0,0,1-4.156-1.038,9.97,9.97,0,0,0-5.443-.952,2.832,2.832,0,0,1-2.265-.777c-.909-1.207-2.884-2.193-4.185-1.744a22.439,22.439,0,0,1-3.775,1.111c-1.717.269-3.474.267-5.21.428-.795.073-1.755.612-2.336.325a45.662,45.662,0,0,1-4.684-3.029C197.169,339.485,195.016,340.9,192.9,342.354Z" transform="translate(-123.752 -61.853)"/><path d="M321.3,321.9l-.973-.094.392.288a7.138,7.138,0,0,0-.92,1.472c-.6,1.819-1.106,3.667-1.649,5.5a4.925,4.925,0,0,1-.126-1.8,5.373,5.373,0,0,0-.277-1.177,8.447,8.447,0,0,0-1.2.432c-.237.125-.359.483-.6.587-1.863.807-.027,2.109-.388,3.141-.069.2.665.675,1.19,1.177-.176.882-.142,1.93,1.163,1.888-.428,1.559-.851,3.1-1.295,4.722l-1.464-2.687-.327.121.664,1.866-.946,1.426.565.426-.022.023h0l.014,0c.441-.042.879-.081,1.18-.107l1.533.4c.8-3.275,1.547-6.649,2.449-9.982a59.694,59.694,0,0,0,1.635-10.282,3.2,3.2,0,0,0-.608,1.644A7.373,7.373,0,0,0,321.3,321.9Z" transform="translate(-123.752 -61.853)"/><path d="M251.448,309.544a17.572,17.572,0,0,0-4.433-.581c-3.9.059-7.13,1.858-10.161,4.07l.092.569c1.265-.141,2.534-.249,3.792-.437.626-.093,1.225-.353,1.845-.5,2.915-.7,5.836-1.369,8.746-2.085C252.173,310.37,252.294,309.754,251.448,309.544Z" transform="translate(-123.752 -61.853)"/><path d="M218.856,313.554l.529-.549a6.565,6.565,0,0,1-1.162-.4c-3.462-1.986-7.1-3.315-11.167-2.938a8.648,8.648,0,0,0-2.135.792c.542.27,1.1.515,1.623.817a19.441,19.441,0,0,0,9.541,2.28C217.008,313.571,217.932,313.554,218.856,313.554Z" transform="translate(-123.752 -61.853)"/><path d="M323.233,299.782c-.462-.052-1.217-.295-1.332-.12-.358.548-.844,1.457-.62,1.864.926,1.689.543,2.529-1.342,2.86l1.716.261-2.434,2.2h2.98q.188.879.376,1.759c.007.023.014.046.021.071q.276,1.408.551,2.818l.249-.031c.436-3.388.872-6.776,1.366-10.613l-1.206.822c-.062-.694-.114-1.276-.167-1.858ZM322.19,306.8l.046.05Z" transform="translate(-123.752 -61.853)"/><path d="M255.206,315.376c1.762-1.158,2.327-3.116,2.968-5.017-2.791,3.976-7.1,5.424-11.657,6.824C248.905,318.528,251.162,318.033,255.206,315.376Z" transform="translate(-123.752 -61.853)"/><path d="M202.466,314.356l-.37.345a9.1,9.1,0,0,0,.78,1.3c2.218,2.616,5.253,2.756,8.342,2.664.12,0,.349-.54.327-.556a5.482,5.482,0,0,0-1.562-1c-.718-.207-1.521-.1-2.267-.234a15.04,15.04,0,0,1-3.351-.822A8.221,8.221,0,0,1,202.466,314.356Z" transform="translate(-123.752 -61.853)"/><path class="cls-2" d="M293.19,380.572c-.23.986-.361,1.549-.493,2.117l.932.066-1.436,1.624.329.41c.88-.764,1.778-1.507,2.631-2.3a19.63,19.63,0,0,0,1.38-1.514c.267-.305.511-.632.765-.949l-1.11-.159C295.033,380.138,293.883,380.409,293.19,380.572Z" transform="translate(-123.752 -61.853)"/><path d="M295.551,364.716l-1.98.469c.215-1.712.4-3.182.6-4.808l-1.692.653c-.215,1.23-.383,2.184-.555,3.165l2.2,1.787-1.432-.124a1.364,1.364,0,0,0,1.724.792,8.83,8.83,0,0,0,1.033-.41C295.486,365.733,295.518,365.226,295.551,364.716Z" transform="translate(-123.752 -61.853)"/><path d="M295.454,366.24l0,.026.082-.06Z" transform="translate(-123.752 -61.853)"/><path d="M230.442,317.868c1.933-.727,4.53-.8,5.14-4.3-3.032,4.218-7.126,3.247-11.323,3.5A6.971,6.971,0,0,0,230.442,317.868Z" transform="translate(-123.752 -61.853)"/><path d="M288.1,375.011l1.635-.873c-.244-.45-.465-1.269-.736-1.286a25.4,25.4,0,0,0-3.63.166,3.474,3.474,0,0,0-.878.406l1.777.082,0,.2-1.986.343.034.588h2.446Z" transform="translate(-123.752 -61.853)"/><polygon points="27.295 264.35 27.294 264.349 27.284 264.385 27.284 264.386 27.295 264.35"/><path d="M151.905,328.121l.779.061-.793-1.842-.852-.1,0,0-.875-.111-1.111-.142c.575,1.33,1,2.344,1.454,3.347.2.449.45.876.682,1.31Q151.549,329.382,151.905,328.121Z" transform="translate(-123.752 -61.853)"/><path d="M151.2,330.669l-.013-.023,0,0v.006l-.012.041h0Z" transform="translate(-123.752 -61.853)"/><path d="M150.661,323.994c.279-.788.466-1.32.679-1.923L149.848,322c1.024-1.847-1-1.964-1.406-2.944l-.493.112c.316,1.594.632,3.187,1.016,5.129l.98-1.625Z" transform="translate(-123.752 -61.853)"/><path d="M322.577,308.6c-.433.072-1.175.031-1.25.235-.532,1.447-.9,2.955-1.384,4.42a5.883,5.883,0,0,1-.9,1.25l.607.654c1.682-1.381,1.68-1.381,1.546-3.156a1.172,1.172,0,0,1,.007-.548c.449-.936.929-1.858,1.4-2.784h0C322.591,308.65,322.584,308.627,322.577,308.6Z" transform="translate(-123.752 -61.853)"/><path d="M319.774,310.784l-1.53-2.568c-.3,1.659-.571,2.9-.669,4.157a9.691,9.691,0,0,0,1.713.415Z" transform="translate(-123.752 -61.853)"/><path d="M322.236,306.845l-.046-.05Z" transform="translate(-123.752 -61.853)"/><polygon points="27.295 264.349 27.295 264.35 27.323 264.377 27.295 264.349"/><polygon points="27.284 264.386 27.287 264.389 27.323 264.377 27.295 264.35 27.284 264.386"/><path class="cls-2" d="M180.677,184.074c-.476.6-.809,1.334-1.335,1.885a30.967,30.967,0,0,1-2.382,2.033l3.691,1.9a2.376,2.376,0,0,1-1.107-.076,7.493,7.493,0,0,0-1.553-.35c-.36.813-2.1.53-1.608,1.988.016.045-.49.405-.652.346a18.844,18.844,0,0,1-1.861-.9l1.172-.952c-.976-1.089-1.771-1.437-2.22.206-1.615-.374-2.115-.965-.682-2.188.236-.2.159-.825.127-1.246-.008-.106-.527-.313-.594-.248a4.367,4.367,0,0,0-.628.9.505.505,0,0,0-.028.051c.014-.032.025-.056.048-.112-.952.35-1.829.406-2.052.817a6.315,6.315,0,0,0-.282,2.284l.769.206c-.112.652-.427,1.291-.262,1.762.383,1.094,1.037,2.091,1.49,3.165.115.274-.11.69-.171,1l-2.281-3.224c0-.171.172-.774-.037-.967a5.9,5.9,0,0,0-1.581-.779l1.077-.967c-.366-.13-.9-.182-.94-.355-.346-1.408-1.155-.719-1.841-.439-1.1.451-2.187.949-3.582,1.559l-.262.992.8-.384c-.211,1.11-.424,2.23-.638,3.35-.238,1.252-.468,2.5,1.693,2.7l-3.627,2.1c-.1-.417-.173-.747-.25-1.077l-.3.224-1.237-1.11-2.1,2.049,1.786.313c-.964.6-2.8.319-1.14,2.152.11.121-.1.552-.188.829-.163.5-.626,1.1-.479,1.461.575,1.421-.32,1.225-1.3,1.119,1.451,1.5-2,2.287-.172,3.9l-.924-.361-.669,1.511,1.194-.695c-.3,1.778-3.388,3.283.115,5.305l-2.267-.375.6.732h-1c.268.34.805.789.726.97-.162.373-.654.6-1.009.89l.114.121-.7.592.422.044c-.08,1.077-.161,2.154-.241,3.221a3.2,3.2,0,0,1,.21.886c-.06,1.167-.221,2.33-.252,3.5-.024.923.208,1.862.11,2.771-.141,1.31-.479,2.6-.728,3.87-.148-.341-.323-.746-.6-1.388-.675,1.3.162,3.072-1.3,3.648-.385,1.244-.778,2.459-1.133,3.685a15.882,15.882,0,0,0-.448,1.96,23.248,23.248,0,0,0-.371,3.2,3.518,3.518,0,0,0,.51,1.858,5.848,5.848,0,0,0,1.583,1.527c1.171.819,2.1,2.156,3.833,1.872.271-.044.754.021.819.173.1.235-.152.6-.111.889.053.369.215,1.006.39,1.028a26.01,26.01,0,0,0,2.971.1c1.871.011,3.715-.082,5.067-1.724.1.13.2.26.295.391l-1.352,1.253c-.11-.046.016.047.147.057a46.046,46.046,0,0,0,5.437.34,7.681,7.681,0,0,0,3.486-1.012c2.045-1.224,3.818-2.926,5.909-4.046a26.853,26.853,0,0,1,13.739-3.3c1.147.039,2.295.1,3.442.095a8.43,8.43,0,0,0,1.419-.248v.115l5.775.938a10.456,10.456,0,0,0,1.922,1.271c1.367.467,2.934.559,3.557,2.307l-.812-.046-.126.369,1.489.66-.092.087,4.424,2.784v2.412l.3,0c-.031-.307-.061-.614-.092-.921l.52.2a5.485,5.485,0,0,0,.468-.923c.165-.558.063-1.429.412-1.661,2.153-1.434.183-1.319-.663-1.687-.232-1.194-.153-2.632-.793-3.588-.7-1.044-2.065-1.643-3.14-2.436l.122-.237,2.3.978-.9-1.391,2.115-.193.075-.437-6.186-1.119.792,1.146a5.073,5.073,0,0,1-1.409-.144,9.151,9.151,0,0,1-1.51-.963l.922-.516c-.513-.668-.943-1.3-1.456-1.863a1.99,1.99,0,0,0-.975-.541,12.626,12.626,0,0,1-2.589-.483c-1.967-.938-3.819-2.114-5.783-3.057-.436-.209-1.166.09-1.723.272-.36.117-.673.673-.969.644a19.318,19.318,0,0,0-4.887-.057,72.908,72.908,0,0,1-8.66.316,1.5,1.5,0,0,0-.39.167l.617.44c-1.56-.245-3.286-.593-5.028-.739a2.676,2.676,0,0,0-1.55.8c-.955.787-1.783,2.286-2.762,2.372-2.191.191-3.5,1.708-5.2,2.595-1,.52-1.623.355-1.875-.756l-.014.012h0l-.894-1.278,3.627-2.292L161.3,234.1l-.765.256-.3-.335,4.374-4.574-.127-.176-2.96,2.222-.328-.458,10.824-8.617.408.475-1.99,2.1.176.221,4.71-3.535.516.585c-.45.439-.892.887-1.356,1.312-.2.18-.455.292-.641.479-.029.03.188.429.269.422.213-.021.405-.2.621-.262.4-.11.819-.178,1.295-.278-.839-2.287,1.734-1.311,2.354-2.318l9.8,3.172-.873,1.265c2.157-.421,3.738-.608,5.544.356,1.629.87,3.884.567,6.026.8-.015.2-.061.788-.125,1.614l1.753-.812,2.311.58-.89,1.123.2.222,1.524-.906.965,1.68,2.792-.279-1.02.841,3.2-.5c-.363.973-.676,1.81-1.094,2.932h5.255q-.1.312-.2.623l2.829.839a11.758,11.758,0,0,0-1.6,1.595c-.087.126.358.795.689.989a4.847,4.847,0,0,0,1.39.36l-1.84,3.635a5.672,5.672,0,0,0,1.329-.224,2.443,2.443,0,0,1,3.088,1.379c.538,1.553,1.263,3.041,1.815,4.59a4.97,4.97,0,0,1,.025,1.573,8.156,8.156,0,0,0,.429,1.582c.3,1.614.477,3.251.771,4.866.039.214.462.47.736.512,1.535.232,3.078.405,4.874.63l-1.661.442.035.477h3.574l.051-.416-1.6-.536a29.336,29.336,0,0,0,4.461-.681,3.641,3.641,0,0,0,1.872-1.672,16.847,16.847,0,0,0,1.267-3.583,7.034,7.034,0,0,0,.026-1.785l-.455-.157,1.728-1.171-.276-.086c.56-1.246,1.119-2.492,1.656-3.688l.683.414a6.829,6.829,0,0,0,.616-1.317c.254-1.092.417-2.205.617-3.31l.56-.107-1.825-.874,4.068-1.2-1.66-.95c2.6-.1,2.714-.212,2.34-2.128l1.444-.146-.79-.5,1.7-1.146-.155.351,3.195.222.039-.287-2.24-.288.006-.313,1.221-.336-.618-.858,5.328-1.179-.992-.628.071-.267,2.833.451-.594-1.305,3.873-.662-.547-.639,2.9.664v-.417l1.948-.149c-.093-.534-.2-1.157-.261-1.5l4.413.414.088-.425-2.736-1.508,5.657,1.378.184-1.059,1.4.912c.073-.428.305-.881.17-1.154-.5-1-.238-1.141.822-1.174,1.5-.048,3.265.007,4.425-.742,1.342-.865,2.33-.842,3-.477,1.011-.382,1.933-.905,2.064-.752.855,1,1.374.64,1.814-.278l3.527,1.138.106-.2-1.944-1.424.242-.341,2.689,1.548-.544-1.371c2.448,1.548,2.115,4.942,4.839,5.557.111.365.106.822.323.985,1.171.879,2.4,1.686,3.605,2.517l3.516,2.414q-.635-.677-1.267-1.354l.334-.447,8.545,6.068-.191.261q-3.4-2.075-6.808-4.152l1.1,2.306c.127.265.256.53.384.795l-1.058.48c.509,1.274,1.029,2.573,1.633,4.084l-5.765-2.788c.855,2.422,3.108,2.061,4.429,3.158l-2.084-.353-.089.405,3.3,1.564-.138.528c-.465,0-.931.02-1.393-.012-.135-.009-.259-.167-.389-.254-.77-.515-1.553-1.01-2.306-1.547-.974-.693-1.925-1.418-2.886-2.13q-.065.259-.13.519l-1.583.59-.117-.253.838-.616c-1.541-.6-2.833-1.094-4.111-1.618-.461-.19-1.121-.353-1.291-.716-1-2.121-2.658-2.595-4.946-2.183l.834.69-.975.085.23.492c-.315.175-.676.548-.935.487-.688-.163-1.313-.576-2-.773a10.056,10.056,0,0,0-2.647-.52c-.547,0-1.1.462-1.646.718l-.214-.544,1.025-.384H271.8l1.971-.522-.165-.589-8.692,2.18,1.163-1.592c-1.423.457-2.648.783-3.819,1.245-1.127.444-2.536.765-3.2,1.621-.732.938-.826,2.28-2.525,1.571-.213-.089-.6.284-.927.411-.519.205-1.049.383-1.884.684l-1.8-.193-.25.706a4.474,4.474,0,0,0-4.928,2.864,9.924,9.924,0,0,1-1.252,1.949l2.093-.443.1.368-1.771,1.251,2.089-.431-2.131,3.753,1.086,1.619a6.9,6.9,0,0,0-.62.9c.755.695,1.568,1.328,2.369,1.974l1.823-2.282.7.47,5.068-4.03c.022-.12-.019-.63.156-.721.815-.421,1.691-.724,2.544-1.074a.838.838,0,0,0,.316-.178c.623-.688,1.236-1.386,1.853-2.082l.108.482a5.8,5.8,0,0,0,1.806.248c2.172-.4,4.3-1.086,6.486-1.353a36.1,36.1,0,0,1,6.162-.092,18.259,18.259,0,0,1,5.371.741,17.744,17.744,0,0,1,7.625,5.23,4.155,4.155,0,0,0,2.15,1.63c2.8.326,5.634.433,8.457.478,1.948.031,3.9-.232,5.85-.258,1.24-.016,2.483.161,3.953.267-.921-1.533-.088-1.458.836-1.634a31.6,31.6,0,0,0,3.956-1.211c.211-.069.372-.28.566-.41a16.341,16.341,0,0,1,2.279-1.48,4.74,4.74,0,0,0,3.082-5.135l-1.568-.594.1-.291.741.186c-.283-.662-.551-1.37-.885-2.045-.422-.856-.9-1.686-1.456-2.722l1.2-.558c-2.235-.168-3.169-1.611-2.816-4.019a.125.125,0,0,0-.04-.013l-.063.062c.018-.023.033-.062.053-.065l.01,0,.031-.03c-.345-.39-.877-.862-1.207-1.246-.207-.241-.332-.447-.277-.574.577-1.328-.3-1.542-1.18-2.163v1.166l-.241-.034c.028-.451.056-.9.079-1.263-.515-.334-1.13-.54-1.365-.959-.148-.263.275-.846.442-1.286.389.188.785.362,1.163.568.323.176.624.389.935.585a3,3,0,0,0,.187-1.069c-.315-1.485-.7-2.955-1.111-4.623,1.707-1.625,1.707-1.625,1.626-2.112l-1.767.951-.179-.264c.235-.3.469-.593.629-.795l-1.132-5.251-.636-.153-1.156,1.379,1.411.448a6.625,6.625,0,0,0-1.052.4,2.466,2.466,0,0,0-.55.451l1.081,2.109-.47.417a14.781,14.781,0,0,1-2.4-2.739,14.237,14.237,0,0,1-.9-3.382l-2.835.467.636-1.118-.875.132,0-.018c-.178.088-.353.173-.529.253-.116.053-.232.1-.349.145a3.279,3.279,0,0,1-.5.151,2.1,2.1,0,0,1-1.572-.3,9.26,9.26,0,0,0-2.456-.663l-.01.029,0,.014a7.628,7.628,0,0,1-.984-1.283c-.449-1.083-.824-2.2-1.25-3.356.236.079.858.385.925.292a11.2,11.2,0,0,0,.877-1.694l-.379-.175-.742.523c-.192-1.506-.365-2.872-.567-4.463,1.256.73,2.279,1.846,3.989.954l-2.57-2.407,2.071-.21.3-.62c-2.146.626-2.245-.885-2.587-1.954-.173-.54.273-1.249.268-1.88a10.5,10.5,0,0,0-.357-1.9,18.24,18.24,0,0,1-2.058-1.5c-.269-.253-.252-.82-.345-1.249a4.3,4.3,0,0,0-.231-1.168c-.4-.711-1.833-.865-1.149-2.172.019-.036-.148-.155-.2-.249-.258-.418-.508-.841-.8-1.331a5.313,5.313,0,0,1-.727-.409c-.4-.294-.728-.75-1.17-.924a6.471,6.471,0,0,0-1.63-.213l.091-.514,1.015.117c-.295-1.3-.058-2.908-2.549-3.3L289.1,181.3c-1.774.832-1.765-.819-2.3-1.948v2.981l1.286-.758c.147,3.146.284,6.1.423,9.079l-1.012-1.127c.287,1.681.465,2.938.753,4.169.038.161.64.19,1.208.34.18.431.519,1.241.871,2.085l-1.146.083-.36,1.557a13.661,13.661,0,0,1-1.446-2.786c-.279-1.186-.158-2.46-.343-3.676-.294-1.938-.7-3.86-1.069-5.853.067-.037.392-.263.363-.327-.381-.817.081-2.472-1.814-1.823.738-1.853.3-5.061-.631-5.89-.756,1.682-.122,3.885-1.654,5.32q.408-4.473.817-8.966l-.339-.041-.638.808c-.156-.137-.31-.206-.322-.294q-.207-1.507-.374-3.019c-.082-.731-2.865-3.693-3.577-3.759a4.732,4.732,0,0,1-1.171-.023c-1.072-.413-2.1-.937-3.16-1.382-.614-.257-1.258-.444-1.777-.624.128,1.141.26,2.322.393,3.5a13.2,13.2,0,0,1-1.464-2.415,4.189,4.189,0,0,0-.548-1.054,15.4,15.4,0,0,0-1.494-1.222l.18-.566a6.3,6.3,0,0,0-1.519.6c-.129.091.121.723.218,1.211h-2.388c.327,2.138,2.481.76,3.42,1.949l-1.864.308-.089.413,1.345.428c0,.235-.153.739.027,1.046a34.688,34.688,0,0,0,2.568,3.931,10.018,10.018,0,0,0,2.114,1.67,7.709,7.709,0,0,1,1.637,1.105c1.017,1.285,1.918,2.663,2.828,4.029.547.821,1.024,1.688,1.532,2.534a1.258,1.258,0,0,1-1.074-.315c-2.157-2.319-4.174-4.783-6.476-6.947-2.385-2.241-5.034-4.2-7.6-6.24-.09-.072-.855.406-.831.536.218,1.134.544,2.247.836,3.36l-.662.434-1.7-.85-.242.366,5.739,5.565-.3.291-2.192-1.654c.217,2.091.275,4.157,2.58,4.916h-.8c-.668,2.136,1.035,3,2.32,4.081l-.526.454-4.168-3.829.245-.278,1.252.972.459-.438-2.3-2.611-.738.344q.433,3.219.868,6.439l-.315.063-3.018-9.118-.712.18v5.629c-.461-1.783-.564-3.574-.932-5.308-.134-.635.086-2.2-1.584-1.511-.162.067-.662-.255-.737-.485-.448-1.364-.734-2.786-1.235-4.128-.446-1.191-1.1-2.3-1.664-3.452-.225,1.348.138,2.624-.077,3.793-.3,1.636-.879,3.13,1.829,3.378l-.388.449-1.849-.4c.177,1.466.341,2.823.5,4.173l2.031-.3-2.076,2.673c-.452-1.606-.8-3.094-1.3-4.529a8.6,8.6,0,0,0-1.219-2.11c-.47-.653-1.054-1.224-1.588-1.832l.46-.36.647.944.55-.118a24.944,24.944,0,0,1-.436-3.263,22.333,22.333,0,0,1,.39-3.14l-1.934-.219c.349,1.617.684,3.167.919,4.254-.918.58-1.63.786-1.89,1.246a17.7,17.7,0,0,0-1.156,2.989,1.387,1.387,0,0,0-.033.832c.415,1.234.877,2.453,1.322,3.676l-.482.267c-.23-.252-.465-.5-.689-.758a13.988,13.988,0,0,1-1.035-1.24c-.218-.321-.551-.8-.451-1.064.728-1.9-1.141-2.734-1.633-4.12-.119-.334-.761-.464-1.126-.737-.332-.248-.927-.673-.871-.83.584-1.649-.345-2.768-1.237-3.912-.618-.792-1.31-1.532-1.867-2.364-.672-1-1.2-2.1-1.881-3.1-.113-.164-.674-.023-.951-.023a6.108,6.108,0,0,0,.6,1.724,5.724,5.724,0,0,0,1.47.988l-1.1.637c.077.274.157.557.237.839a24.315,24.315,0,0,1-2.9-3.444c-1.259-1.578-1.723-3.922-4.292-4.324l1.107-1.44c-.743.07-1.467.008-1.517.164-.272.846-.733,1.869-.477,2.6a13.267,13.267,0,0,0,5.159,6.324c.939.674,1.76,1.514,2.634,2.278l-.3.368a14.67,14.67,0,0,1-2.911-2.179c-1.115-1.365-2.064-.923-3.047-.218l-.628-.681c-.052.423-.1.845-.159,1.3l-1.464-1.345c-.151.572-.261.985-.308,1.164l-2.751-1.393c1.93-.108,2.594-.811,1.884-2.513a7.791,7.791,0,0,0-2.181-2.326,5.251,5.251,0,0,0-1.314-.644,10.552,10.552,0,0,1,.11,1.172c0,.225-.193.455-.178.674a24.655,24.655,0,0,0,.3,2.942,16.66,16.66,0,0,0,.849,2.319l-1.588-.356c.283,1.243.591,2.594.9,3.945l-.5.087-1.239-2.964a3.218,3.218,0,0,0-.62-1.706,5.082,5.082,0,0,0-1.681-1.045c-.162-.073-.506.224-.751.376-.592.367-1.17.755-1.763,1.119-.156.095-.44.084-.5.206-1.024,1.924-.646,3.893-.173,5.871.251,1.054.442,2.123.755,3.646-.792-1.449-1.292-2.372-1.8-3.289-.222-.4-.644-.776-.66-1.176a20.513,20.513,0,0,0,.226-2.335,38.985,38.985,0,0,0-1.12-4.323c-.011-.037-.62-.02-.666.09-.313.753-.55,1.537-.811,2.311l-.408.084-.562-3.37a8.012,8.012,0,0,0-.688,1.337c-.449,1.674,1.75,3,.656,4.784-.018.03.1.124.12.2.173.608.339,1.218.507,1.828l-.516.167-1.274-.607c-.2.443-.357.844-.558,1.221a2.57,2.57,0,0,1-.5.628c-.033.032-.371-.146-.364-.2a8.11,8.11,0,0,0,.207-.841,7.415,7.415,0,0,0-.122-1.906c-.073-.285-.545-.469-.835-.7-.213.345-.632.712-.6,1.031.095.89.416,1.754.564,2.643a2.8,2.8,0,0,1-.222,1c-.209-.127-.533-.207-.606-.389a15.6,15.6,0,0,1-.84-2.482c-.207-.962-.2-1.972-.41-2.931-.088-.4-.513-.722-.8-1.064a1.248,1.248,0,0,0-.286.154c.172.347.359.686.639,1.2l-1.346.628c-.489.837-1.042,1.781-1.556,2.66-1.041-.275-.394-2.842-3.036-1.5l1.313-1.256-.119-.4-1.626.292c.134.631.268,1.262.45,2.114l-.925,1.261-.229-.235-.859.413a1.177,1.177,0,0,0-.158-.072c-1.041-.385-1.895-1.842-3.243-.57-.041.039-.388-.138-.488-.286-.706-1.043-1.385-2.1-2.072-3.16l-.482.173.621,2.48-.289-.109c-.238.833-.475,1.666-.662,2.326-.258-.21-.69-.643-.75-.6-.381.295-.949.691-.957,1.065-.022,1.055-.177,1.382-1.25.792-.3-.167-.976.2-1.406.451a3.9,3.9,0,0,0-.807.882l-.206-.174.716-1.887c-1.624.957-3.77,4.677-3.54,5.778C181.793,182.794,181.2,183.408,180.677,184.074Zm107.373,14.4c1.886-1.417,1.714,1.231,2.888,1.548-.68.907-1.364,1.87-2.155.818C288.358,200.275,286.7,199.493,288.05,198.474Z" transform="translate(-123.752 -61.853)"/><path class="cls-2" d="M298.607,210.414c.009-.026.022-.061,0,0Z" transform="translate(-123.752 -61.853)"/><path class="cls-3" d="M193.387,243.44v.077" transform="translate(-123.752 -61.853)"/><path class="cls-2" d="M298.6,210.424l0-.01Z" transform="translate(-123.752 -61.853)"/><path class="cls-2" d="M306.642,257.623c.177-2.592-2.522-1.686-3.349-3.377.031.6.043.838.067,1.306l-.855-.928.066-.476,4.9.3.017-.6c-5.161-1.565-10.457-.986-15.737-.712a28.884,28.884,0,0,0,3.622.41c1.216.084,2.432.16,3.647.239a8.622,8.622,0,0,1-2.448,1.517c-.174.085-.4.443-.355.522a2.287,2.287,0,0,0,.563.512c-.19.212-.663.617-.612.7.747,1.226,1.564,2.408,2.348,3.577l-2.158,2.028.57.293-1.078,2.019c-.311.486-1.008.634-1.571.993a8.134,8.134,0,0,0-1.329,1.359c.018.02-.162-.17-.122-.128a10.239,10.239,0,0,1-2.734,1.451c-.929.164-1.962-.39-2.942-.362-1.594.046-3.179.4-4.773.452a33.132,33.132,0,0,1-3.639-.29,10.56,10.56,0,0,0-1.3-.017c-.975.043-2.15,1.144-2.869-.761h2.719c.173-.353.235-.742.459-.894,1.189-.811,2.485-1.479,3.611-2.364.743-.584,1.16-1.584,1.9-2.168,2.439-1.917,2.718-2.611,1.148-5.216a12.041,12.041,0,0,0-3.083-3.553c-.684-.492-2.014-.088-3-.088a23.767,23.767,0,0,1,.548,3.957c-.09,3.35-1.887,5.75-4.655,7.473-.806.5-1.694,1.243-2.533,1.229A9.876,9.876,0,0,1,268.157,265c-3.138-1.342-6.329-5.927-4.82-9.606a5.734,5.734,0,0,0,.182-1.1c-1.844.351-3.835.216-5.155,1.093a40.084,40.084,0,0,1-7.44,3.99c-.332.131-.9.422-.881.562.129.815.161,1.926.689,2.326a4.223,4.223,0,0,0,2.64.47c1.629-.114,3.25-.7,4.843.141.8.422,1.6.861,2.392,1.293l-.151.166,1.256.166-.162.772c-.931-.167-1.859-.35-2.8-.49-.221-.034-.464.1-.7.113a4.6,4.6,0,0,1-1.884-.01c-1.744-.778-3.633-.707-5.439-1.092-1.222-.26-3.053-1.822-2.915-3a9.89,9.89,0,0,1,.927-2.788c.362-.812.407-1.42-.665-1.358a10.585,10.585,0,0,0-3.382.544,3.9,3.9,0,0,0-2.674,3.194,3.462,3.462,0,0,1-.508,1.046c.273.394.787.8.822,1.241a8.835,8.835,0,0,0,2.978,5.9,9.458,9.458,0,0,1,3.151,5.887l-1.6-.43c.352,2.025.659,3.788.966,5.551l-.562.032a4.135,4.135,0,0,0-.013-.87,7.387,7.387,0,0,0-.366-1c-.17.283-.479.565-.484.852a20.013,20.013,0,0,0,.179,2.206,8.2,8.2,0,0,0,.271,2.375c.455,1.064,1.294,1.961,1.786,3.014a6.706,6.706,0,0,0,5.218,3.734,50.786,50.786,0,0,0,8.685.8c5.9.034,11.817.026,17.7-.349a93.918,93.918,0,0,0,12.689-1.832A62.541,62.541,0,0,0,302,285.77a5.613,5.613,0,0,0,2.952-2.259,20.457,20.457,0,0,0,1.675-5.538,92.214,92.214,0,0,0,1.481-9.952,38.066,38.066,0,0,0-.378-7.269C307.6,259.677,306.574,258.634,306.642,257.623Z" transform="translate(-123.752 -61.853)"/><path class="cls-2" d="M213.5,257.545a18.152,18.152,0,0,0-3.223-.757,5.723,5.723,0,0,0-.379,2.164,2.75,2.75,0,0,1-1.613,3.489c-1.771.789-3.661,1.312-5.921,2.1l1.73.813c-.034.407-.068.8-.129,1.533l-.935.43.315.4,1,.051h0c-2.448,1.9-4.381,2.938-5.366,2.976a.622.622,0,0,1-.653-.3l1.146-.7-.3-.457-2.9,2.109-.331-.378,2.3-2.081-.108-.588c-2.228,2.211-4.764,1.1-7.207,1.206.274-.234.707-.271.858-.5a4.358,4.358,0,0,1,3.132-1.777c.5-.1.871-.82,1.3-1.258a4.515,4.515,0,0,0-1.548-.534c-2.283.115-4.56.343-6.848.531.13.242.247.462.522.976l-1.145-.642-.114.431,3.664.681a12.407,12.407,0,0,1-3.467,1.018c-1.186.142-2.4.052-3.6.077a1.018,1.018,0,0,0-.582.133c-1.133.908-1.442.253-1.593-1.088l-1.324,1.028a6.675,6.675,0,0,0-1.161-.227c-.638-.011-1.452.326-1.884.044-1.411-.92-2.394-.56-3.4.593a1.352,1.352,0,0,1-1.212.047c-1.107-.522-2.159-1.161-3.1-1.68l-1.186,2.308c-.222-.435-.36-.72-.526-.988a2.041,2.041,0,0,0-.369.174c.227.589.476,1.17.564,1.378l-2.406-.318-.133.553-.544-.843,1.577-.389-2.437-1.926.384.5-1.318.35c-.042-.8-.085-1.594-.127-2.389l-.828.128.139-1.435-2.989-3.545-1.652,1c.078-.177.147-.334.209-.477.187-.426.315-.72.444-1.013h0a8.457,8.457,0,0,1-.843-.332.509.509,0,0,1-.176-.172c-.7-1.206-1.647-.858-2.626-.565-1.158.348-1.7,1.839-3.121,1.691-.015,0-.029.086-.058.1-.469.226-.94.448-1.891.9-.532,3.893.086,8.283,1,12.645l.547.023.993-1.6,1.474,1.026c-.493.71-.785,1.073-1.014,1.473-.409.712-1.239,1.565-1.087,2.15a63.433,63.433,0,0,0,2.405,7.084,2.394,2.394,0,0,0,1.385,1.248c4.79,1.364,9.55,2.912,14.424,3.876a82.852,82.852,0,0,0,22.077,1.116c3.508-.252,6.989-.955,10.5-1.119,3.389-.159,5.905-1.575,6.95-4.179-.225-.913-.642-1.692-.431-1.941a7.535,7.535,0,0,1,2.128-1.193,6.182,6.182,0,0,0,.322-1.2,4.5,4.5,0,0,0-.114-1.4,9.677,9.677,0,0,0-.569-2.231,20.188,20.188,0,0,0-1.437-2.164c-.3-.465-.543-.965-.812-1.449a6.088,6.088,0,0,0-1.014,1.467c-.426,1.338-.706,2.724-1.045,4.091a1.375,1.375,0,0,1-.139-1.02c.411-2,.872-3.982,1.249-5.984a8.763,8.763,0,0,1,6.649-6.348,2.309,2.309,0,0,0,1.377-1.737,30.149,30.149,0,0,0-.456-5.662A2.51,2.51,0,0,0,213.5,257.545Z" transform="translate(-123.752 -61.853)"/><path class="cls-2" d="M281.467,246.087l-.035.033v0l-.013.013.02-.063-.007.05.043-.039a12.137,12.137,0,0,0-2.849-1.676,22.871,22.871,0,0,0-14.208.609,54.192,54.192,0,0,0-6.289,3.169c-.187.1-.258.414-.341.707a2.385,2.385,0,0,1-.091.278c.369.043.739.087,1.108.128l2.028.227-.939,1.039.286.429c.474-.29.945-.584,1.422-.869a3.833,3.833,0,0,1,1.072-.59c.92-.186,1.863-.264,2.8-.385l-.028-.114,8.133-.423a5.192,5.192,0,0,1-.167-.937c.831-.312,1.685-.56,2.577-.835a5.017,5.017,0,0,0,.006.946c2.547.554,5.1,1.073,7.656,1.6l.121-.48q-.9-1.209-1.807-2.42l-.054.019-.128.569-.478-.356.606-.213.016-.069.08.036,0,0-.535-.375Z" transform="translate(-123.752 -61.853)"/><path class="cls-2" d="M174.787,259.368c1.073,2.624,3.742,3.453,5.843,4.872a8.286,8.286,0,0,0,3.336.817,4.4,4.4,0,0,0,1.487-.317c-.21-.49-.287-1.143-.653-1.444-2.122-1.751-3.7-3.893-3.647-6.669.035-1.964-.653-2.387-2.331-2.1-.235.041-.486-.027-.726-.009-1.146.085-2.835,2.329-2.595,3.435l-.5-.073C174.919,258.381,174.624,258.969,174.787,259.368Z" transform="translate(-123.752 -61.853)"/><path class="cls-2" d="M245.143,173.723c1.309,1.809,1.435.435,1.7-.6a1.607,1.607,0,0,1,.248-.66c.931-1.036.815-3.991-.122-4.948a7.165,7.165,0,0,1-1.513-2.088,2.12,2.12,0,0,0-2.664-1.532c.627,2.8,1.239,5.54,1.852,8.278l-.377.155c-.409-1.165-.819-2.329-1.218-3.465l-.848.456c-.076-.171-.219-.343-.216-.513.013-.8.111-1.6.1-2.4-.06-3.114-1.149-3.834-4.074-2.583l6.053,9.975C244.561,173.755,245.05,173.6,245.143,173.723Z" transform="translate(-123.752 -61.853)"/><path class="cls-2" d="M204.388,258.638c-.659-1.71-4.447-3.562-6.353-3.115a.891.891,0,0,0-.552.634c-.046,3.159-1.6,5.506-4.3,7.642.895.113,1.414.336,1.818.205,3.265-1.058,6.6-1.991,9.238-4.368A1.124,1.124,0,0,0,204.388,258.638Z" transform="translate(-123.752 -61.853)"/><path class="cls-2" d="M182.834,245.5c.5,1.376,4.654,2.544,6.167,1.929a1.324,1.324,0,0,0,1.049.17,5.657,5.657,0,0,1,4.62-.262c.4.176.785.4,1.209.614l.684-.76,1.648.544C193.768,243.948,187.268,243.733,182.834,245.5Z" transform="translate(-123.752 -61.853)"/><path class="cls-2" d="M178.854,183.7c2.566-.987,4.224-6.042,2.7-7.99-.389.478-.747.874-1.055,1.307-.789,1.107-1.872,2.139-2.229,3.376C177.99,181.362,178.625,182.592,178.854,183.7Z" transform="translate(-123.752 -61.853)"/><path class="cls-2" d="M210.927,254.9l-27.066-1.955-.019.285,27.05,2.262Z" transform="translate(-123.752 -61.853)"/><path class="cls-2" d="M161.543,240.1c.879-.432,1.594-1.194,2.466-1.648,1.462-.76,2.993-1.388,4.494-2.071q-.139-.368-.28-.735a24.864,24.864,0,0,0-4.3,1.546c-.387.221-.761.467-1.127.727-1.06.757-2.047,1.64-3.079,2.446A5.429,5.429,0,0,0,161.543,240.1Z" transform="translate(-123.752 -61.853)"/><path class="cls-2" d="M159.626,240.44l.089-.071h0c-.035,0-.071,0-.1.008l0,.074h0Z" transform="translate(-123.752 -61.853)"/><path class="cls-2" d="M150.649,255.6l14.84-1.013C160.5,254.424,155.5,254.01,150.649,255.6Z" transform="translate(-123.752 -61.853)"/><path class="cls-2" d="M258.8,253.749l18.549-1.651-.016-.236-18.658,1.191Z" transform="translate(-123.752 -61.853)"/><path class="cls-2" d="M226.656,162.416c-.48-1.5-.959-3-1.565-4.9C223.411,160.749,223.411,160.749,226.656,162.416Z" transform="translate(-123.752 -61.853)"/><path class="cls-2" d="M304.212,209.014l-.3-.032-.313.573-1.729-.842,1.5-.229-2.059-.646.256-.684-.278-.149-1.392,2.333,2.126.735,2,.69Q304.117,209.889,304.212,209.014Z" transform="translate(-123.752 -61.853)"/><path class="cls-2" d="M304.017,210.824l.055-.044-.048-.017h0l0,.043h0Z" transform="translate(-123.752 -61.853)"/><path d="M307.61,235.883l.191-.261-8.545-6.068-.334.447q.633.677,1.267,1.354l.613.375h0Q304.207,233.81,307.61,235.883Z" transform="translate(-123.752 -61.853)"/><path class="cls-2" d="M201.835,266.12c-1.679-2.045-3.433-1.242-5.584-.8,3.529,1.644,4.176,1.8,4.128,1.145l-.9-.367.093-.244Z" transform="translate(-123.752 -61.853)"/><path d="M281.78,247.066l.128-.569-.606.213Z" transform="translate(-123.752 -61.853)"/><path d="M281.908,246.5l.054-.019.042-.014-.08-.036Z" transform="translate(-123.752 -61.853)"/><path d="M315.06,230.878l.063-.062-.01,0C315.093,230.816,315.078,230.855,315.06,230.878Z" transform="translate(-123.752 -61.853)"/><path d="M315.123,230.816a.125.125,0,0,1,.04.013.428.428,0,0,0,.043.014l-.037-.071-.015.014h0Z" transform="translate(-123.752 -61.853)"/><path d="M281.432,246.118v0l.035-.033h0l.008-.008Z" transform="translate(-123.752 -61.853)"/><path d="M281.419,246.131l.013-.013.007-.05Z" transform="translate(-123.752 -61.853)"/><path class="cls-4" d="M151.046,326.2l.029.028" transform="translate(-123.752 -61.853)"/><line class="cls-4" x1="27.295" y1="264.35" x2="27.294" y2="264.349"/><path d="M288.783,200.84c.791,1.052,1.475.089,2.155-.818-1.174-.317-1-2.965-2.888-1.548C286.7,199.493,288.358,200.275,288.783,200.84Z" transform="translate(-123.752 -61.853)"/></svg>
